<svg width="22" height="15" viewBox="0 0 22 15" fill="none" xmlns="http://www.w3.org/2000/svg">
<path d="M13.0903 1.66113C13.1765 1.65495 13.2533 1.70076 13.3247 1.80956C13.41 1.93975 13.4902 2.07617 13.561 2.21777C13.7321 2.56008 13.8725 2.92497 14.0063 3.29784C14.2172 3.88532 14.404 4.48486 14.5669 5.0957C14.6451 5.38912 14.7087 5.67975 14.7846 5.97949C14.8009 6.04323 14.83 6.10297 14.8618 6.15136C15.2081 6.67833 15.4976 7.24767 15.7095 7.87597C15.8243 8.21657 15.9117 8.56528 15.9536 8.9287C15.9766 9.12891 15.989 9.32527 15.9663 9.52831V9.53027C15.9279 9.97794 15.7966 10.37 15.5893 10.7246C15.335 11.1597 15.0111 11.5017 14.647 11.791C14.3722 12.0093 14.0858 12.1999 13.7876 12.3613C13.2042 12.6772 12.5976 12.9036 11.9741 13.0654C11.5487 13.1759 11.1179 13.2493 10.6831 13.3008C10.2954 13.3467 9.90764 13.371 9.52 13.3662C9.24958 13.3629 8.97929 13.3483 8.71238 13.3154C8.1782 13.2496 7.65913 13.1399 7.17137 12.8809C6.89554 12.7343 6.64323 12.5496 6.43504 12.2861C6.27403 12.0823 6.1576 11.8395 6.07957 11.5625C5.98021 11.2097 5.93542 10.8453 5.92527 10.4687C5.91251 9.99445 5.9411 9.52387 6.00828 9.05761C6.04148 8.82721 6.08609 8.59908 6.13035 8.36718C6.14574 8.28645 6.15065 8.20686 6.13523 8.12011C6.06226 7.70942 5.9849 7.30362 5.92332 6.89355C5.85929 6.46709 5.80436 6.03748 5.75828 5.60741C5.72197 5.26849 5.69767 4.92608 5.68211 4.58398C5.66846 4.28388 5.66466 3.98838 5.70945 3.69921C5.73393 3.54127 5.78862 3.43392 5.8823 3.37695C5.93737 3.34354 6.00052 3.3452 6.08348 3.37109C6.14941 3.39168 6.21618 3.4234 6.28367 3.46093C6.64347 3.66107 6.98485 3.90889 7.3198 4.17773C7.59045 4.39496 7.85947 4.61727 8.1284 4.83984C8.21756 4.91365 8.30069 4.99242 8.39305 5.07421L8.44871 5.12206L8.51121 5.08495C9.48651 4.5004 10.5203 4.31514 11.602 4.35253L11.6733 4.35546L11.6987 4.28808C11.731 4.20322 11.7645 4.11434 11.7993 4.02538C12.0432 3.40198 12.3063 2.79455 12.6167 2.22265C12.7014 2.06657 12.7855 1.92113 12.8882 1.79882C12.9617 1.71124 13.0228 1.66602 13.0903 1.66113ZM13.0141 2.01757C12.9752 2.07538 12.919 2.14613 12.8804 2.21874C12.7475 2.46873 12.6095 2.72164 12.4848 2.98339C12.2387 3.5003 12.0147 4.03401 11.8198 4.58495C11.8038 4.63014 11.7893 4.6477 11.7807 4.65429C11.7751 4.65862 11.7642 4.66445 11.7348 4.6621C11.4607 4.63968 11.1844 4.63418 10.9067 4.65722C10.6157 4.68137 10.3235 4.71727 10.0327 4.78613C9.64513 4.8779 9.26371 5.00632 8.895 5.19238C8.73785 5.27169 8.58391 5.36024 8.43308 5.45214C8.4308 5.45353 8.42869 5.45435 8.42723 5.45507C8.42339 5.45278 8.41719 5.44897 8.40867 5.4414C8.21639 5.27024 8.02274 5.09685 7.82664 4.9287C7.44292 4.59969 7.04973 4.28564 6.64109 4.00195C6.478 3.88872 6.30523 3.77257 6.11668 3.69238C6.09054 3.68126 6.05834 3.67113 6.03855 3.66406L5.91941 3.62109L5.90574 3.74706C5.89909 3.80835 5.88906 3.87208 5.88621 3.93066C5.86649 4.3371 5.88346 4.74175 5.91941 5.14257C5.96794 5.68344 6.02847 6.22418 6.1157 6.75976C6.18412 7.17981 6.25341 7.60096 6.33152 8.01952C6.35793 8.16119 6.35744 8.28954 6.32762 8.42968C6.22907 8.89272 6.15869 9.3639 6.1323 9.8457C6.10777 10.2938 6.11486 10.7435 6.19969 11.1885C6.30051 11.717 6.53564 12.1358 6.93113 12.4141C7.13178 12.5551 7.34229 12.6656 7.56101 12.751C7.82961 12.8558 8.10367 12.926 8.38133 12.9687C8.55326 12.9952 8.72582 13.0164 8.89695 13.0361C8.94212 13.0413 8.98714 13.0441 9.02879 13.0459C9.07152 13.0478 9.11102 13.0494 9.14988 13.0527C9.59671 13.0913 10.041 13.0618 10.478 13.0225C10.7515 12.9978 11.0243 12.952 11.2905 12.9111C11.6856 12.8505 12.0722 12.7445 12.4526 12.6211C12.7608 12.5211 13.0655 12.403 13.3755 12.2568L13.3774 12.2559C13.4255 12.2318 13.4745 12.207 13.5229 12.1826C14.0633 11.9103 14.5793 11.573 15.0288 11.0898C15.2784 10.8215 15.4951 10.5131 15.6323 10.126C15.7216 9.8738 15.7751 9.61065 15.7768 9.32909C15.7791 8.95073 15.7027 8.5949 15.605 8.2539C15.4808 7.82078 15.3143 7.41201 15.1128 7.02636C14.9764 6.76551 14.8229 6.52217 14.6684 6.28417C14.6459 6.24944 14.627 6.20254 14.6137 6.15234C14.4934 5.69548 14.3795 5.22827 14.2534 4.7705C14.0916 4.18298 13.8979 3.61142 13.6841 3.05175C13.5713 2.75666 13.448 2.4649 13.3012 2.18847C13.2709 2.13138 13.2316 2.05609 13.1616 1.99706L13.0757 1.92577L13.0141 2.01757Z" fill="#010101" stroke="black" stroke-width="0.2"/>
<path d="M18.5273 2.10059C18.5944 2.09431 18.647 2.11971 18.6738 2.14941C18.6977 2.17594 18.7026 2.20518 18.6836 2.23828C18.6016 2.38076 18.498 2.51354 18.3926 2.6582C18.2192 2.89609 18.0429 3.13093 17.8672 3.36914C17.8468 3.39676 17.8275 3.43286 17.8057 3.46777L17.7012 3.63379L17.8975 3.62012C18.0688 3.60817 18.2199 3.59805 18.3828 3.58691H18.3838C18.5153 3.57739 18.6237 3.56527 18.7363 3.56152C18.8452 3.55793 18.8924 3.611 18.8994 3.66602C18.9036 3.69931 18.8743 3.76446 18.7686 3.77637C18.4943 3.80725 18.2193 3.83 17.9414 3.85547C17.793 3.86907 17.6441 3.88121 17.4951 3.89355C17.4497 3.89732 17.4138 3.90074 17.3789 3.89941C17.3175 3.89697 17.276 3.87139 17.2549 3.84375C17.2352 3.81788 17.229 3.78572 17.2451 3.74902C17.2593 3.71704 17.2826 3.68639 17.3154 3.6416C17.5678 3.29723 17.8214 2.95279 18.0742 2.6084C18.09 2.58692 18.1066 2.55904 18.1211 2.53613L18.2178 2.38281H17.918C17.712 2.40042 17.498 2.42083 17.293 2.43848C17.1791 2.44828 17.1326 2.41238 17.1133 2.37402C17.0936 2.33486 17.0978 2.30389 17.1133 2.28027C17.1306 2.25397 17.1709 2.22437 17.2422 2.21387C17.365 2.19586 17.4827 2.19347 17.6191 2.18164C17.921 2.15543 18.2249 2.12937 18.5273 2.10059Z" fill="#010101" stroke="black" stroke-width="0.2"/>
<path d="M16.4619 4.10156C16.5284 4.09736 16.5949 4.10367 16.6387 4.12207C16.6894 4.14342 16.704 4.16929 16.708 4.18848C16.7128 4.21136 16.7081 4.25272 16.667 4.31152C16.5498 4.47921 16.4258 4.64037 16.3018 4.80957C16.1694 4.99009 16.0376 5.17132 15.9062 5.35254C15.8934 5.37033 15.8856 5.38825 15.8799 5.40137C15.8735 5.41609 15.8687 5.42748 15.8604 5.44531L15.7861 5.60449L15.9609 5.58691C16.1783 5.56454 16.3699 5.54132 16.5635 5.52637C16.6406 5.52042 16.7154 5.52074 16.7783 5.53516C16.8686 5.5559 16.9011 5.61629 16.9004 5.65234C16.8994 5.6913 16.863 5.75049 16.7578 5.76953C16.7271 5.77506 16.6938 5.7782 16.6562 5.78027C16.6204 5.78225 16.5773 5.78383 16.5361 5.78809C16.3806 5.80417 16.2246 5.82046 16.0693 5.83691C15.914 5.85337 15.7587 5.8697 15.6035 5.88574C15.5318 5.89315 15.4675 5.90091 15.4043 5.90039C15.317 5.89964 15.2583 5.86304 15.2305 5.82324C15.2044 5.78595 15.1978 5.73637 15.2305 5.68164L15.374 5.48535C15.6017 5.18282 15.8213 4.88988 16.0645 4.56543L16.1934 4.39355L15.9785 4.40527C15.806 4.41495 15.6697 4.42181 15.5342 4.43066C15.4875 4.43371 15.4406 4.43918 15.3975 4.44336C15.3532 4.44764 15.3114 4.45109 15.2705 4.45215C15.1646 4.45485 15.1111 4.39831 15.1025 4.34766C15.0962 4.31 15.1039 4.28657 15.1162 4.27051C15.1298 4.25291 15.1589 4.23095 15.2178 4.21875C15.3413 4.19327 15.4712 4.18102 15.6055 4.16895C15.8912 4.14324 16.1765 4.11958 16.4619 4.10156Z" fill="#010101" stroke="black" stroke-width="0.2"/>
<mask id="path-4-inside-1_1_14" fill="white">
<path d="M13.3269 12.1688C13.0268 12.3105 12.7267 12.4272 12.4222 12.526C12.0443 12.6486 11.6632 12.7528 11.2753 12.8123C11.007 12.8535 10.7386 12.899 10.4691 12.9232C10.0329 12.9625 9.59591 12.9906 9.15827 12.9528C9.07521 12.9456 8.99162 12.9467 8.90878 12.9371C8.73798 12.9175 8.5672 12.8964 8.39697 12.8702C8.12556 12.8284 7.8583 12.7602 7.59698 12.6582C7.38546 12.5756 7.18293 12.4687 6.98908 12.3324C6.61926 12.0724 6.39546 11.6795 6.2983 11.1701C6.21548 10.7359 6.20781 10.2952 6.23211 9.85135C6.25815 9.37561 6.32796 8.90959 6.4257 8.45042C6.45842 8.29667 6.45871 8.15497 6.42997 8.00092C6.35207 7.58355 6.28254 7.16364 6.21412 6.74361C6.12741 6.21126 6.06744 5.67336 6.01903 5.13382C5.98334 4.73603 5.96676 4.33626 5.98619 3.93563C5.98885 3.88076 5.9976 3.82635 6.00501 3.75814C6.03131 3.76754 6.05478 3.77461 6.07754 3.78429C6.25567 3.86005 6.42077 3.97096 6.58438 4.08454C6.98946 4.36576 7.37996 4.67664 7.76192 5.00415C7.9571 5.17151 8.1493 5.34436 8.34211 5.516C8.38766 5.55655 8.42786 5.57199 8.48483 5.53727C8.63422 5.44625 8.78567 5.3595 8.93976 5.28173C9.3002 5.09982 9.67399 4.97408 10.0556 4.8837C10.3398 4.81642 10.6266 4.78042 10.915 4.75648C11.1859 4.734 11.4562 4.73944 11.7264 4.76154C11.8209 4.76927 11.876 4.7259 11.9142 4.61788C12.1078 4.07048 12.3299 3.54081 12.5747 3.02679C12.6982 2.76744 12.8347 2.51765 12.9684 2.26608C13.004 2.19913 13.0509 2.14157 13.0968 2.07351C13.1503 2.11849 13.1821 2.17652 13.2132 2.23495C13.3573 2.50632 13.4783 2.7939 13.5904 3.08725C13.8035 3.64466 13.9958 4.21338 14.1566 4.79744C14.2826 5.25494 14.3956 5.71803 14.5167 6.1777C14.5317 6.23476 14.5543 6.29257 14.5844 6.33891C14.7386 6.57645 14.8897 6.81635 15.0238 7.07281C15.2224 7.45283 15.3862 7.85536 15.5085 8.28181C15.6051 8.6188 15.6787 8.96366 15.6765 9.32832C15.6749 9.59749 15.6245 9.84979 15.5383 10.0929C15.4069 10.4638 15.1984 10.7601 14.9551 11.0215C14.5159 11.4935 14.0112 11.8248 13.4776 12.0937C13.4294 12.118 13.381 12.1421 13.3269 12.1688ZM11.1637 11.0801C11.1868 11.0375 11.1974 11.0787 11.2084 11.0928C11.4787 11.4402 12.0011 11.4481 12.275 10.951C12.3298 10.8516 12.3715 10.7425 12.3808 10.6193C12.3865 10.5437 12.348 10.475 12.2923 10.4553C12.2451 10.4385 12.1832 10.4787 12.1583 10.5443C12.1506 10.5647 12.147 10.5875 12.1421 10.6094C12.0828 10.8705 11.8997 11.0458 11.6874 11.0446C11.4827 11.0435 11.2909 10.8537 11.236 10.5996C11.2185 10.5187 11.2058 10.4408 11.267 10.3772C11.2745 10.3695 11.2776 10.3551 11.2824 10.3436C11.3536 10.1739 11.4248 10.0042 11.4957 9.83431C11.5029 9.8171 11.5095 9.79914 11.514 9.78061C11.5455 9.64987 11.4809 9.54377 11.3716 9.54765C11.3431 9.54866 11.3144 9.55284 11.2863 9.55914C11.069 9.60786 10.8516 9.65597 10.6348 9.70812C10.595 9.71768 10.5544 9.73786 10.5204 9.7653C10.4609 9.81346 10.4496 9.90576 10.4883 9.97994C10.4981 9.99883 10.5103 10.0166 10.5237 10.0317C10.6569 10.182 10.7872 10.3366 10.9258 10.4786C10.9761 10.5303 10.9986 10.5833 10.9985 10.6584C10.9984 10.6941 10.9983 10.7301 10.995 10.7655C10.9729 11.007 10.8226 11.2176 10.6311 11.2842C10.4467 11.3483 10.2439 11.2318 10.1437 11.0538C10.1302 11.0299 10.1168 11.006 10.1025 10.9829C10.0718 10.9331 10.0304 10.9214 9.98384 10.936C9.93695 10.9506 9.90078 10.9893 9.89688 11.0475C9.89387 11.0923 9.90387 11.1468 9.92353 11.1843C10.065 11.4544 10.2682 11.6015 10.5257 11.5937C10.8113 11.5851 11.0221 11.4065 11.1637 11.0801ZM8.53531 9.91364C8.41063 9.83671 8.34949 9.699 8.31665 9.54038C8.29326 9.42739 8.28227 9.31045 8.2642 9.19565C8.24888 9.09829 8.18467 9.02554 8.10905 9.01619C8.03712 9.0073 7.96163 9.05902 7.93346 9.14713C7.9205 9.18765 7.91576 9.23628 7.91866 9.28006C7.93359 9.50531 7.97208 9.72292 8.06052 9.92362C8.14941 10.1253 8.27803 10.2696 8.44936 10.3538C8.57969 10.4179 8.71448 10.4159 8.84952 10.3879C9.10537 10.335 9.29658 10.1715 9.40827 9.8723C9.44625 9.77055 9.46596 9.66416 9.47664 9.55375C9.49656 9.34778 9.48503 9.14428 9.44259 8.94441C9.4151 8.81493 9.33275 8.74822 9.23957 8.77051C9.14421 8.79333 9.08642 8.90276 9.10076 9.03459C9.10567 9.07969 9.11351 9.12433 9.11757 9.16952C9.13035 9.312 9.14293 9.45483 9.11058 9.59603C9.07992 9.7299 9.02364 9.84058 8.91722 9.8969C8.79658 9.96074 8.67302 9.98836 8.53531 9.91364ZM12.5758 8.7388C12.5526 8.60914 12.5303 8.47924 12.5061 8.3499C12.4831 8.22715 12.3979 8.15323 12.3047 8.1723C12.2125 8.19116 12.1567 8.288 12.1639 8.41429C12.1745 8.6004 12.2062 8.78049 12.2631 8.95296C12.373 9.28571 12.5628 9.49137 12.8554 9.53617C12.9826 9.55564 13.1041 9.5284 13.2238 9.48029C13.4192 9.40175 13.5657 9.25202 13.6507 9.01471C13.7498 8.73831 13.7458 8.4529 13.6982 8.16385C13.6924 8.129 13.6855 8.09394 13.6752 8.06088C13.6418 7.95361 13.5587 7.89224 13.4781 7.91357C13.412 7.93105 13.3273 8.02692 13.3388 8.15266C13.3423 8.19128 13.3468 8.22998 13.3536 8.26789C13.3805 8.41913 13.3849 8.57083 13.3583 8.72248C13.3413 8.81976 13.3062 8.90446 13.2433 8.97048C13.0294 9.19501 12.7213 9.11786 12.5976 8.80719C12.5907 8.78977 12.5852 8.77144 12.5758 8.7388ZM7.46222 5.37014C7.25141 5.19156 7.04141 5.01145 6.82941 4.83513C6.74076 4.7614 6.64853 4.6942 6.55654 4.62702C6.5125 4.59486 6.46614 4.59809 6.42493 4.63811C6.38208 4.67972 6.36637 4.73604 6.37562 4.80261C6.38293 4.85532 6.41279 4.885 6.44659 4.91237C6.70828 5.12434 6.97062 5.33514 7.23036 5.55079C7.32646 5.63057 7.41615 5.72241 7.51047 5.81034C7.49901 5.82607 7.49462 5.83419 7.48872 5.83988C7.1925 6.1261 6.93371 6.45725 6.71929 6.84158C6.7 6.87616 6.67974 6.91073 6.66525 6.9485C6.63573 7.0255 6.65613 7.11151 6.71035 7.15404C6.76017 7.19312 6.81922 7.18072 6.86492 7.11932C6.88077 7.09802 6.89402 7.07351 6.90732 7.04948C7.02904 6.82953 7.16393 6.62241 7.31983 6.43981C7.45435 6.28225 7.59733 6.13576 7.73913 5.98821C7.85853 5.86395 7.86258 5.76605 7.74207 5.6415C7.65398 5.55044 7.56175 5.46564 7.46222 5.37014ZM13.2094 5.11748C13.3375 5.19611 13.4663 5.27308 13.5935 5.35419C13.6443 5.3866 13.6898 5.43178 13.7405 5.46468C13.8275 5.52125 13.9185 5.45378 13.9266 5.33195C13.9314 5.25983 13.9008 5.21544 13.8563 5.18129C13.5084 4.91432 13.1409 4.705 12.7421 4.5872C12.728 4.58304 12.715 4.57318 12.695 4.56252C12.7852 4.32937 12.8683 4.09834 12.9627 3.87463C13.0547 3.65629 13.1574 3.44493 13.257 3.23166C13.2779 3.18698 13.2903 3.14262 13.2772 3.09297C13.2613 3.03297 13.2289 2.9943 13.177 2.98398C13.1219 2.97305 13.0786 2.99699 13.05 3.055C12.9874 3.18229 12.9258 3.31044 12.8657 3.43962C12.6929 3.81119 12.5504 4.20137 12.4159 4.59627C12.3736 4.72029 12.4051 4.80636 12.5069 4.84477C12.5243 4.85133 12.5423 4.85548 12.5602 4.85995C12.7802 4.91501 12.9916 5.00415 13.2094 5.11748Z"/>
</mask>
<path d="M13.3269 12.1688C13.0268 12.3105 12.7267 12.4272 12.4222 12.526C12.0443 12.6486 11.6632 12.7528 11.2753 12.8123C11.007 12.8535 10.7386 12.899 10.4691 12.9232C10.0329 12.9625 9.59591 12.9906 9.15827 12.9528C9.07521 12.9456 8.99162 12.9467 8.90878 12.9371C8.73798 12.9175 8.5672 12.8964 8.39697 12.8702C8.12556 12.8284 7.8583 12.7602 7.59698 12.6582C7.38546 12.5756 7.18293 12.4687 6.98908 12.3324C6.61926 12.0724 6.39546 11.6795 6.2983 11.1701C6.21548 10.7359 6.20781 10.2952 6.23211 9.85135C6.25815 9.37561 6.32796 8.90959 6.4257 8.45042C6.45842 8.29667 6.45871 8.15497 6.42997 8.00092C6.35207 7.58355 6.28254 7.16364 6.21412 6.74361C6.12741 6.21126 6.06744 5.67336 6.01903 5.13382C5.98334 4.73603 5.96676 4.33626 5.98619 3.93563C5.98885 3.88076 5.9976 3.82635 6.00501 3.75814C6.03131 3.76754 6.05478 3.77461 6.07754 3.78429C6.25567 3.86005 6.42077 3.97096 6.58438 4.08454C6.98946 4.36576 7.37996 4.67664 7.76192 5.00415C7.9571 5.17151 8.1493 5.34436 8.34211 5.516C8.38766 5.55655 8.42786 5.57199 8.48483 5.53727C8.63422 5.44625 8.78567 5.3595 8.93976 5.28173C9.3002 5.09982 9.67399 4.97408 10.0556 4.8837C10.3398 4.81642 10.6266 4.78042 10.915 4.75648C11.1859 4.734 11.4562 4.73944 11.7264 4.76154C11.8209 4.76927 11.876 4.7259 11.9142 4.61788C12.1078 4.07048 12.3299 3.54081 12.5747 3.02679C12.6982 2.76744 12.8347 2.51765 12.9684 2.26608C13.004 2.19913 13.0509 2.14157 13.0968 2.07351C13.1503 2.11849 13.1821 2.17652 13.2132 2.23495C13.3573 2.50632 13.4783 2.7939 13.5904 3.08725C13.8035 3.64466 13.9958 4.21338 14.1566 4.79744C14.2826 5.25494 14.3956 5.71803 14.5167 6.1777C14.5317 6.23476 14.5543 6.29257 14.5844 6.33891C14.7386 6.57645 14.8897 6.81635 15.0238 7.07281C15.2224 7.45283 15.3862 7.85536 15.5085 8.28181C15.6051 8.6188 15.6787 8.96366 15.6765 9.32832C15.6749 9.59749 15.6245 9.84979 15.5383 10.0929C15.4069 10.4638 15.1984 10.7601 14.9551 11.0215C14.5159 11.4935 14.0112 11.8248 13.4776 12.0937C13.4294 12.118 13.381 12.1421 13.3269 12.1688ZM11.1637 11.0801C11.1868 11.0375 11.1974 11.0787 11.2084 11.0928C11.4787 11.4402 12.0011 11.4481 12.275 10.951C12.3298 10.8516 12.3715 10.7425 12.3808 10.6193C12.3865 10.5437 12.348 10.475 12.2923 10.4553C12.2451 10.4385 12.1832 10.4787 12.1583 10.5443C12.1506 10.5647 12.147 10.5875 12.1421 10.6094C12.0828 10.8705 11.8997 11.0458 11.6874 11.0446C11.4827 11.0435 11.2909 10.8537 11.236 10.5996C11.2185 10.5187 11.2058 10.4408 11.267 10.3772C11.2745 10.3695 11.2776 10.3551 11.2824 10.3436C11.3536 10.1739 11.4248 10.0042 11.4957 9.83431C11.5029 9.8171 11.5095 9.79914 11.514 9.78061C11.5455 9.64987 11.4809 9.54377 11.3716 9.54765C11.3431 9.54866 11.3144 9.55284 11.2863 9.55914C11.069 9.60786 10.8516 9.65597 10.6348 9.70812C10.595 9.71768 10.5544 9.73786 10.5204 9.7653C10.4609 9.81346 10.4496 9.90576 10.4883 9.97994C10.4981 9.99883 10.5103 10.0166 10.5237 10.0317C10.6569 10.182 10.7872 10.3366 10.9258 10.4786C10.9761 10.5303 10.9986 10.5833 10.9985 10.6584C10.9984 10.6941 10.9983 10.7301 10.995 10.7655C10.9729 11.007 10.8226 11.2176 10.6311 11.2842C10.4467 11.3483 10.2439 11.2318 10.1437 11.0538C10.1302 11.0299 10.1168 11.006 10.1025 10.9829C10.0718 10.9331 10.0304 10.9214 9.98384 10.936C9.93695 10.9506 9.90078 10.9893 9.89688 11.0475C9.89387 11.0923 9.90387 11.1468 9.92353 11.1843C10.065 11.4544 10.2682 11.6015 10.5257 11.5937C10.8113 11.5851 11.0221 11.4065 11.1637 11.0801ZM8.53531 9.91364C8.41063 9.83671 8.34949 9.699 8.31665 9.54038C8.29326 9.42739 8.28227 9.31045 8.2642 9.19565C8.24888 9.09829 8.18467 9.02554 8.10905 9.01619C8.03712 9.0073 7.96163 9.05902 7.93346 9.14713C7.9205 9.18765 7.91576 9.23628 7.91866 9.28006C7.93359 9.50531 7.97208 9.72292 8.06052 9.92362C8.14941 10.1253 8.27803 10.2696 8.44936 10.3538C8.57969 10.4179 8.71448 10.4159 8.84952 10.3879C9.10537 10.335 9.29658 10.1715 9.40827 9.8723C9.44625 9.77055 9.46596 9.66416 9.47664 9.55375C9.49656 9.34778 9.48503 9.14428 9.44259 8.94441C9.4151 8.81493 9.33275 8.74822 9.23957 8.77051C9.14421 8.79333 9.08642 8.90276 9.10076 9.03459C9.10567 9.07969 9.11351 9.12433 9.11757 9.16952C9.13035 9.312 9.14293 9.45483 9.11058 9.59603C9.07992 9.7299 9.02364 9.84058 8.91722 9.8969C8.79658 9.96074 8.67302 9.98836 8.53531 9.91364ZM12.5758 8.7388C12.5526 8.60914 12.5303 8.47924 12.5061 8.3499C12.4831 8.22715 12.3979 8.15323 12.3047 8.1723C12.2125 8.19116 12.1567 8.288 12.1639 8.41429C12.1745 8.6004 12.2062 8.78049 12.2631 8.95296C12.373 9.28571 12.5628 9.49137 12.8554 9.53617C12.9826 9.55564 13.1041 9.5284 13.2238 9.48029C13.4192 9.40175 13.5657 9.25202 13.6507 9.01471C13.7498 8.73831 13.7458 8.4529 13.6982 8.16385C13.6924 8.129 13.6855 8.09394 13.6752 8.06088C13.6418 7.95361 13.5587 7.89224 13.4781 7.91357C13.412 7.93105 13.3273 8.02692 13.3388 8.15266C13.3423 8.19128 13.3468 8.22998 13.3536 8.26789C13.3805 8.41913 13.3849 8.57083 13.3583 8.72248C13.3413 8.81976 13.3062 8.90446 13.2433 8.97048C13.0294 9.19501 12.7213 9.11786 12.5976 8.80719C12.5907 8.78977 12.5852 8.77144 12.5758 8.7388ZM7.46222 5.37014C7.25141 5.19156 7.04141 5.01145 6.82941 4.83513C6.74076 4.7614 6.64853 4.6942 6.55654 4.62702C6.5125 4.59486 6.46614 4.59809 6.42493 4.63811C6.38208 4.67972 6.36637 4.73604 6.37562 4.80261C6.38293 4.85532 6.41279 4.885 6.44659 4.91237C6.70828 5.12434 6.97062 5.33514 7.23036 5.55079C7.32646 5.63057 7.41615 5.72241 7.51047 5.81034C7.49901 5.82607 7.49462 5.83419 7.48872 5.83988C7.1925 6.1261 6.93371 6.45725 6.71929 6.84158C6.7 6.87616 6.67974 6.91073 6.66525 6.9485C6.63573 7.0255 6.65613 7.11151 6.71035 7.15404C6.76017 7.19312 6.81922 7.18072 6.86492 7.11932C6.88077 7.09802 6.89402 7.07351 6.90732 7.04948C7.02904 6.82953 7.16393 6.62241 7.31983 6.43981C7.45435 6.28225 7.59733 6.13576 7.73913 5.98821C7.85853 5.86395 7.86258 5.76605 7.74207 5.6415C7.65398 5.55044 7.56175 5.46564 7.46222 5.37014ZM13.2094 5.11748C13.3375 5.19611 13.4663 5.27308 13.5935 5.35419C13.6443 5.3866 13.6898 5.43178 13.7405 5.46468C13.8275 5.52125 13.9185 5.45378 13.9266 5.33195C13.9314 5.25983 13.9008 5.21544 13.8563 5.18129C13.5084 4.91432 13.1409 4.705 12.7421 4.5872C12.728 4.58304 12.715 4.57318 12.695 4.56252C12.7852 4.32937 12.8683 4.09834 12.9627 3.87463C13.0547 3.65629 13.1574 3.44493 13.257 3.23166C13.2779 3.18698 13.2903 3.14262 13.2772 3.09297C13.2613 3.03297 13.2289 2.9943 13.177 2.98398C13.1219 2.97305 13.0786 2.99699 13.05 3.055C12.9874 3.18229 12.9258 3.31044 12.8657 3.43962C12.6929 3.81119 12.5504 4.20137 12.4159 4.59627C12.3736 4.72029 12.4051 4.80636 12.5069 4.84477C12.5243 4.85133 12.5423 4.85548 12.5602 4.85995C12.7802 4.91501 12.9916 5.00415 13.2094 5.11748Z" stroke="black" stroke-width="0.4" mask="url(#path-4-inside-1_1_14)"/>
<path d="M11.3749 9.64715C11.3924 9.64653 11.4024 9.65339 11.41 9.66571C11.4193 9.68095 11.4278 9.71225 11.4169 9.75751C11.4141 9.76862 11.4093 9.78082 11.4032 9.79559C11.3323 9.96539 11.2615 10.1356 11.1903 10.3054C11.188 10.3109 11.1855 10.3159 11.1844 10.319C11.1838 10.3208 11.1828 10.322 11.1825 10.3229C11.096 10.4262 11.123 10.5487 11.1385 10.6208C11.1997 10.9033 11.4195 11.1425 11.6864 11.1442C11.9605 11.1458 12.1732 10.922 12.2391 10.6315C12.2462 10.6003 12.2474 10.5914 12.2518 10.5798C12.2554 10.5703 12.2617 10.5642 12.2665 10.5593C12.2676 10.5609 12.2701 10.5619 12.2713 10.5641C12.2778 10.5759 12.2826 10.593 12.2811 10.612C12.2732 10.7166 12.2376 10.8119 12.1874 10.903C12.0643 11.1262 11.8928 11.2253 11.7323 11.239C11.5699 11.2526 11.4029 11.18 11.287 11.0309C11.2898 11.0346 11.2938 11.0407 11.287 11.029C11.2848 11.0252 11.2731 11.0049 11.2538 10.989C11.2425 10.9796 11.2238 10.9681 11.1981 10.9645C11.1709 10.9608 11.1464 10.9675 11.1278 10.9782C11.0975 10.9957 11.0811 11.0237 11.0731 11.0388H11.0721L11.0692 11.0466C10.94 11.3444 10.7565 11.4868 10.5223 11.4938C10.3145 11.5 10.1421 11.3852 10.0126 11.1384C10.0026 11.1194 9.99503 11.0834 9.99694 11.0544C9.99755 11.0452 10.0002 11.0407 10.0018 11.0388C10.0038 11.0364 10.0072 11.0329 10.0135 11.0309V11.03C10.0145 11.0312 10.0159 11.0334 10.0174 11.0358C10.0304 11.0569 10.043 11.0792 10.0565 11.1032C10.1711 11.3065 10.4179 11.4641 10.6639 11.3786C10.8995 11.2967 11.0694 11.0474 11.0946 10.7751C11.0983 10.7347 11.0985 10.6941 11.0985 10.6589C11.0986 10.5574 11.0653 10.479 10.9969 10.4089C10.8607 10.2691 10.7338 10.1182 10.5985 9.96551C10.5908 9.9568 10.5833 9.94528 10.577 9.93329C10.5555 9.89166 10.5688 9.85536 10.5829 9.84344C10.6058 9.82493 10.6334 9.8113 10.6581 9.80536C10.8739 9.75343 11.0907 9.70573 11.3085 9.65692C11.3315 9.65176 11.3538 9.64792 11.3749 9.64715Z" fill="#010101" stroke="black" stroke-width="0.2"/>
<path d="M9.30163 8.87662C9.31586 8.88864 9.33411 8.91609 9.3446 8.96549C9.38486 9.15524 9.39576 9.34882 9.37682 9.54459C9.36666 9.64941 9.34824 9.7467 9.31432 9.83756C9.21316 10.1083 9.04711 10.2446 8.82897 10.2897C8.70573 10.3152 8.59577 10.3148 8.49303 10.2643C8.34682 10.1924 8.23343 10.0677 8.15221 9.88346C8.07016 9.69726 8.03292 9.49179 8.01842 9.27311C8.01627 9.23993 8.02064 9.20408 8.02917 9.1774C8.04594 9.12535 8.08213 9.11423 8.09655 9.11588C8.11445 9.11809 8.15514 9.14331 8.16588 9.21158C8.18242 9.31679 8.19488 9.4454 8.21862 9.56022C8.25355 9.7289 8.32319 9.90029 8.48815 10.0016L8.49303 10.0046C8.66657 10.0989 8.82808 10.0568 8.96374 9.98502C9.10816 9.9086 9.17469 9.7634 9.20788 9.61881C9.24431 9.45975 9.23019 9.30069 9.21764 9.1608C9.21539 9.13571 9.21194 9.11101 9.20885 9.08854C9.20569 9.06547 9.20232 9.04478 9.20006 9.02408C9.18855 8.91825 9.23675 8.87424 9.26256 8.86783C9.27761 8.86423 9.28971 8.86658 9.30163 8.87662Z" fill="#010101" stroke="black" stroke-width="0.2"/>
<path d="M13.5041 8.00995C13.5106 8.00835 13.5205 8.00857 13.5343 8.01874C13.5496 8.03013 13.5678 8.054 13.5793 8.091C13.5875 8.11743 13.5943 8.14685 13.5998 8.17987C13.6459 8.45983 13.6478 8.72646 13.5568 8.98065C13.4806 9.19331 13.3534 9.32085 13.1867 9.38788C13.0762 9.4323 12.9732 9.45345 12.8703 9.43768C12.6277 9.40046 12.4613 9.23261 12.3586 8.92206C12.3047 8.75885 12.274 8.58684 12.2638 8.40839C12.2582 8.30789 12.3014 8.27568 12.3244 8.27069C12.3374 8.26803 12.3508 8.27056 12.3654 8.28339C12.3813 8.29738 12.3992 8.32463 12.4074 8.36835L12.4787 8.76385L12.4816 8.77557C12.4888 8.79892 12.4963 8.82187 12.505 8.84393C12.5763 9.02282 12.7061 9.14729 12.8625 9.18671C13.0207 9.22647 13.187 9.17429 13.3156 9.03925C13.3959 8.95488 13.4379 8.84973 13.4572 8.73944C13.486 8.57466 13.481 8.41095 13.4523 8.25018C13.4463 8.21626 13.442 8.1808 13.4386 8.14374C13.4352 8.10613 13.4455 8.07295 13.4621 8.04803C13.4703 8.03567 13.4801 8.02635 13.4884 8.01971C13.4926 8.01643 13.4964 8.01339 13.4992 8.0119C13.5003 8.01132 13.5014 8.01123 13.5021 8.01093L13.5041 8.00995Z" fill="#010101" stroke="black" stroke-width="0.2"/>
<path d="M6.49709 4.70777C6.58957 4.77531 6.67984 4.84051 6.76564 4.91187C6.97543 5.08634 7.18339 5.2636 7.39748 5.44507V5.44605C7.49458 5.53966 7.58353 5.62142 7.66994 5.7107C7.72255 5.76508 7.7307 5.79653 7.73048 5.81324C7.7302 5.831 7.72031 5.86321 7.66701 5.91871C7.52617 6.06526 7.38098 6.21452 7.24416 6.37476C7.08265 6.56393 6.94323 6.77692 6.81935 7.00074C6.80502 7.02664 6.79599 7.04471 6.78517 7.05933C6.7795 7.06695 6.77363 7.07056 6.77052 7.073C6.75745 7.06047 6.74285 7.02575 6.7588 6.98414C6.77008 6.9548 6.78578 6.9278 6.80666 6.89039C7.01621 6.51478 7.26931 6.1914 7.55861 5.91187C7.56917 5.90162 7.57668 5.89042 7.58009 5.8855C7.58436 5.87934 7.58611 5.87538 7.59084 5.8689L7.64357 5.79761L7.57912 5.73707C7.48961 5.65362 7.39284 5.55549 7.29396 5.47339C7.03379 5.25739 6.77087 5.0462 6.50978 4.83472C6.49481 4.82259 6.48713 4.81483 6.48244 4.80835C6.47883 4.80336 6.4759 4.79802 6.47462 4.78882C6.46883 4.74706 6.47884 4.72468 6.49416 4.70972L6.49611 4.70777H6.49709Z" fill="#010101" stroke="black" stroke-width="0.2"/>
<path d="M13.1574 3.08199C13.1623 3.08297 13.1641 3.08462 13.1662 3.08687C13.1693 3.09041 13.1757 3.0991 13.1808 3.11812C13.1852 3.13464 13.183 3.15343 13.1662 3.18941C13.0675 3.40078 12.9633 3.61529 12.8703 3.8359C12.7753 4.0613 12.6906 4.29624 12.6017 4.52633L12.5695 4.60934L12.6476 4.65035C12.656 4.6548 12.6596 4.65746 12.6711 4.66402C12.6798 4.66905 12.6952 4.678 12.714 4.68355C13.0977 4.79695 13.4542 4.99905 13.7951 5.2607C13.8096 5.27187 13.8175 5.28057 13.8214 5.28805C13.8249 5.29463 13.8286 5.30558 13.8273 5.32516C13.8248 5.36334 13.8099 5.37979 13.8048 5.38375L13.8039 5.38473C13.8031 5.38462 13.8002 5.38412 13.7951 5.38082C13.7749 5.36771 13.7546 5.35121 13.7296 5.33102C13.7063 5.31217 13.6783 5.28908 13.6476 5.26949L13.256 5.02926L13.2502 5.02633L13.0871 4.94527C12.9233 4.86886 12.7566 4.80583 12.5841 4.76266C12.5636 4.75753 12.5527 4.75491 12.5421 4.75094C12.5129 4.73988 12.5045 4.72764 12.5011 4.71871C12.4966 4.7062 12.494 4.67858 12.5109 4.62887C12.6451 4.23498 12.7856 3.84807 12.9562 3.48141C13.0159 3.35317 13.0775 3.22612 13.1398 3.09957C13.1457 3.08769 13.1499 3.08236 13.1515 3.08102C13.1524 3.08099 13.1543 3.08138 13.1574 3.08199Z" fill="#010101" stroke="black" stroke-width="0.2"/>
</svg>
