<svg version="1.1" id="Layer_1" xmlns="http://www.w3.org/2000/svg" xmlns:xlink="http://www.w3.org/1999/xlink" x="0px" y="0px"
	 width="100%" viewBox="0 0 2816 1536" enable-background="new 0 0 2816 1536" xml:space="preserve">
<path fill="#000000" opacity="1.000000" stroke="none" 
	d="
M2082.000000,1538.000000 
	C1388.079468,1538.000000 695.158936,1538.000000 2.119209,1538.000000 
	C2.119209,1026.138184 2.119209,514.276367 2.119209,2.207283 
	C940.420776,2.207283 1878.841553,2.207283 2817.631348,2.207283 
	C2817.631348,513.999756 2817.631348,1025.999878 2817.631348,1538.000000 
	C2572.942627,1538.000000 2327.971191,1538.000000 2082.000000,1538.000000 
M2056.561768,975.907043 
	C2059.530029,954.894653 2057.823242,933.963440 2054.830322,913.159180 
	C2049.347656,875.047974 2037.882446,838.601257 2022.960083,803.197937 
	C1995.455444,737.943848 1957.930298,678.852478 1913.068726,624.236267 
	C1909.580933,619.990173 1906.486450,614.937134 1904.840454,609.742249 
	C1895.297119,579.624329 1886.879517,549.139160 1876.890991,519.174927 
	C1855.949097,456.351044 1831.942505,394.679321 1804.829102,334.242584 
	C1787.657715,295.966583 1769.523438,258.137939 1747.270264,222.523941 
	C1737.952026,207.610992 1727.438965,193.320129 1716.292236,179.710358 
	C1705.805542,166.906372 1692.136719,158.869034 1674.610962,159.885635 
	C1660.421265,160.708679 1649.643066,168.304001 1639.862915,177.622208 
	C1625.796509,191.024475 1614.586060,206.773056 1603.736816,222.764267 
	C1563.657349,281.839539 1529.681030,344.386627 1498.361816,408.436035 
	C1493.873779,417.614838 1489.560791,426.879395 1485.462402,435.483459 
	C1345.175781,431.604309 1210.289795,450.786407 1082.845947,511.894348 
	C1071.381592,503.771393 1060.194580,495.389893 1048.558838,487.686188 
	C1014.144958,464.901489 979.718872,442.127625 944.990295,419.828033 
	C901.823059,392.109894 857.515015,366.354980 810.567871,345.463043 
	C801.496216,341.426056 792.076782,337.826843 782.467712,335.428253 
	C770.445984,332.427429 757.967957,331.391449 746.276062,337.080078 
	C729.586060,345.200470 721.548889,359.779999 718.167725,377.241516 
	C712.227600,407.918671 712.727539,439.025238 714.484436,469.914581 
	C716.487122,505.124725 719.630432,540.356201 724.311279,575.306152 
	C730.228638,619.487915 737.313110,663.560974 745.535645,707.372803 
	C753.453613,749.561340 763.349243,791.382507 772.659607,833.302063 
	C774.306458,840.716919 773.901062,847.586548 772.153015,854.912659 
	C766.515259,878.541687 760.633362,902.160034 756.330872,926.050049 
	C747.631104,974.356506 743.947449,1023.086853 745.600891,1072.247803 
	C746.919983,1111.464966 752.848938,1149.645264 765.920898,1186.774048 
	C776.274231,1216.180786 791.734192,1242.292847 813.579895,1264.418823 
	C841.619629,1292.818237 875.481995,1312.516968 911.906921,1327.997192 
	C976.358154,1355.388184 1044.572998,1366.885986 1113.613770,1373.695312 
	C1148.370483,1377.123169 1183.421753,1378.569946 1218.359619,1378.916260 
	C1268.637817,1379.414795 1318.859619,1376.911987 1368.972778,1372.164551 
	C1425.050171,1366.852051 1480.765869,1359.286255 1535.923340,1347.830688 
	C1616.598267,1331.075317 1695.179077,1307.547363 1770.875977,1274.761230 
	C1809.751709,1257.923340 1847.060913,1238.093018 1882.793945,1215.380859 
	C1930.394897,1185.125366 1972.941895,1149.192383 2006.452637,1103.327759 
	C2033.910522,1065.747314 2051.385498,1024.216309 2056.561768,975.907043 
M2124.558105,340.035553 
	C2112.795898,340.981262 2101.033691,341.926971 2087.701416,342.998932 
	C2089.751465,339.217072 2090.823486,336.908661 2092.182373,334.783966 
	C2105.796143,313.498169 2119.565918,292.311493 2133.063721,270.952545 
	C2141.042725,258.326385 2149.474854,245.872147 2156.123047,232.551865 
	C2162.796387,219.181305 2151.334473,205.194016 2136.464355,206.825974 
	C2112.995117,209.401672 2089.491455,211.670563 2065.998047,214.023605 
	C2056.069580,215.018036 2046.029541,215.306992 2036.217896,216.966873 
	C2021.837646,219.399689 2014.934082,231.882599 2020.348511,244.285995 
	C2023.816162,252.229736 2031.296753,255.981583 2041.925537,254.926743 
	C2058.137939,253.317780 2074.338135,251.583176 2090.551758,249.984619 
	C2092.993652,249.743851 2095.479736,249.951096 2099.054443,249.951096 
	C2097.599365,252.595917 2096.762695,254.337585 2095.732422,255.955917 
	C2076.090088,286.811157 2056.406738,317.640167 2036.789551,348.511444 
	C2034.476562,352.151367 2032.001099,355.813507 2030.465210,359.798431 
	C2025.550049,372.550232 2034.068604,385.350098 2047.697266,385.947784 
	C2050.999756,386.092621 2054.339600,385.705017 2057.645752,385.389130 
	C2069.234375,384.281799 2080.822021,383.155670 2092.398926,381.932312 
	C2113.897949,379.660461 2135.432129,377.646606 2156.865967,374.863281 
	C2167.908936,373.429291 2174.889160,364.454681 2173.866699,354.969452 
	C2172.716309,344.294739 2164.674561,337.269501 2153.246582,337.704926 
	C2144.284424,338.046356 2135.351074,339.158264 2124.558105,340.035553 
M1926.652222,461.582733 
	C1924.194336,465.537842 1921.446045,469.344604 1919.335205,473.476898 
	C1913.848755,484.217560 1920.846436,495.890503 1932.786499,496.004700 
	C1936.430542,496.039612 1940.094482,495.556488 1943.725830,495.116852 
	C1959.910522,493.157257 1976.083618,491.101562 1992.268311,489.141632 
	C1996.220093,488.663086 2000.279419,488.794830 2004.149048,487.979645 
	C2011.210449,486.492126 2015.743042,481.132507 2015.845825,474.913940 
	C2015.940308,469.192657 2012.006958,463.515320 2005.489868,461.760376 
	C2001.454102,460.673676 1996.944214,460.691620 1992.724854,461.073456 
	C1982.568359,461.992615 1972.457642,463.417725 1961.267090,464.766632 
	C1962.212280,462.395752 1962.511719,461.149811 1963.152222,460.114807 
	C1969.978638,449.083496 1976.844971,438.076782 1983.728638,427.081085 
	C1990.085938,416.926392 1996.661133,406.902771 2002.798584,396.617493 
	C2008.057373,387.804718 2006.696289,379.696808 1999.065063,375.939423 
	C1995.723755,374.294281 1991.347168,373.933624 1987.531250,374.215759 
	C1972.599854,375.319855 1957.692993,376.804352 1942.800903,378.373260 
	C1935.857422,379.104767 1928.849976,379.861389 1922.085938,381.494873 
	C1914.305420,383.373901 1910.913818,388.995148 1911.974487,396.349518 
	C1912.962402,403.198364 1918.624634,407.991211 1925.998657,407.767944 
	C1930.647339,407.627197 1935.272217,406.825043 1939.919189,406.469513 
	C1946.942139,405.932251 1953.974976,405.525818 1963.000366,404.932495 
	C1950.343384,424.710419 1938.921753,442.557861 1926.652222,461.582733 
z"/>
<path fill="#FAFAFA" opacity="1.000000" stroke="none" 
	d="
M2056.464111,976.809814 
	C2051.385498,1024.216309 2033.910522,1065.747314 2006.452637,1103.327759 
	C1972.941895,1149.192383 1930.394897,1185.125366 1882.793945,1215.380859 
	C1847.060913,1238.093018 1809.751709,1257.923340 1770.875977,1274.761230 
	C1695.179077,1307.547363 1616.598267,1331.075317 1535.923340,1347.830688 
	C1480.765869,1359.286255 1425.050171,1366.852051 1368.972778,1372.164551 
	C1318.859619,1376.911987 1268.637817,1379.414795 1218.359619,1378.916260 
	C1183.421753,1378.569946 1148.370483,1377.123169 1113.613770,1373.695312 
	C1044.572998,1366.885986 976.358154,1355.388184 911.906921,1327.997192 
	C875.481995,1312.516968 841.619629,1292.818237 813.579895,1264.418823 
	C791.734192,1242.292847 776.274231,1216.180786 765.920898,1186.774048 
	C752.848938,1149.645264 746.919983,1111.464966 745.600891,1072.247803 
	C743.947449,1023.086853 747.631104,974.356506 756.330872,926.050049 
	C760.633362,902.160034 766.515259,878.541687 772.153015,854.912659 
	C773.901062,847.586548 774.306458,840.716919 772.659607,833.302063 
	C763.349243,791.382507 753.453613,749.561340 745.535645,707.372803 
	C737.313110,663.560974 730.228638,619.487915 724.311279,575.306152 
	C719.630432,540.356201 716.487122,505.124725 714.484436,469.914581 
	C712.727539,439.025238 712.227600,407.918671 718.167725,377.241516 
	C721.548889,359.779999 729.586060,345.200470 746.276062,337.080078 
	C757.967957,331.391449 770.445984,332.427429 782.467712,335.428253 
	C792.076782,337.826843 801.496216,341.426056 810.567871,345.463043 
	C857.515015,366.354980 901.823059,392.109894 944.990295,419.828033 
	C979.718872,442.127625 1014.144958,464.901489 1048.558838,487.686188 
	C1060.194580,495.389893 1071.381592,503.771393 1082.845947,511.894348 
	C1210.289795,450.786407 1345.175781,431.604309 1485.462402,435.483459 
	C1489.560791,426.879395 1493.873779,417.614838 1498.361816,408.436035 
	C1529.681030,344.386627 1563.657349,281.839539 1603.736816,222.764267 
	C1614.586060,206.773056 1625.796509,191.024475 1639.862915,177.622208 
	C1649.643066,168.304001 1660.421265,160.708679 1674.610962,159.885635 
	C1692.136719,158.869034 1705.805542,166.906372 1716.292236,179.710358 
	C1727.438965,193.320129 1737.952026,207.610992 1747.270264,222.523941 
	C1769.523438,258.137939 1787.657715,295.966583 1804.829102,334.242584 
	C1831.942505,394.679321 1855.949097,456.351044 1876.890991,519.174927 
	C1886.879517,549.139160 1895.297119,579.624329 1904.840454,609.742249 
	C1906.486450,614.937134 1909.580933,619.990173 1913.068726,624.236267 
	C1957.930298,678.852478 1995.455444,737.943848 2022.960083,803.197937 
	C2037.882446,838.601257 2049.347656,875.047974 2054.830322,913.159180 
	C2057.823242,933.963440 2059.530029,954.894653 2056.464111,976.809814 
M1706.586914,1245.829956 
	C1712.770630,1243.352661 1718.958984,1240.886841 1725.137207,1238.396118 
	C1793.437988,1210.862305 1858.036743,1176.935669 1914.252319,1128.601685 
	C1945.389160,1101.830566 1972.085083,1071.490723 1988.905518,1033.510864 
	C1999.929688,1008.618713 2006.390381,982.783508 2006.597534,955.220154 
	C2006.878540,917.878601 1997.453491,882.564758 1985.086670,848.057251 
	C1969.436768,804.388550 1948.463379,763.170227 1923.040527,724.255798 
	C1905.883545,697.993835 1886.536621,673.427979 1866.803833,649.104492 
	C1862.953979,644.359192 1860.057007,638.439575 1858.133667,632.596436 
	C1842.639160,585.526428 1828.178101,538.105774 1812.049072,491.257782 
	C1791.458130,431.449951 1766.844482,373.213135 1739.577026,316.134277 
	C1725.226929,286.095093 1709.731079,256.647369 1691.283447,228.858963 
	C1687.311279,222.875610 1683.236084,216.933014 1676.392090,212.327896 
	C1670.520508,219.296356 1664.516724,225.190491 1659.961548,232.046906 
	C1642.847046,257.807281 1625.372070,283.385712 1609.562012,309.943085 
	C1578.226562,362.579376 1549.804321,416.816986 1525.016479,472.871002 
	C1520.125244,483.931976 1513.072632,488.372864 1500.976074,487.581390 
	C1466.392212,485.318481 1431.799805,484.761139 1397.125854,487.063202 
	C1360.202637,489.514587 1323.494629,493.200928 1287.122925,500.091095 
	C1238.270142,509.345703 1190.425659,522.221436 1144.288940,540.849304 
	C1124.566284,548.812500 1105.180298,557.695862 1086.058472,567.016907 
	C1078.765503,570.571899 1073.620728,568.990540 1067.790527,564.838501 
	C1043.109863,547.262268 1018.509277,529.563049 993.525269,512.425171 
	C944.634766,478.888306 894.650269,447.053894 842.800049,418.256653 
	C821.858826,406.626038 800.726013,395.268829 777.924866,387.511078 
	C775.011536,386.519867 772.007202,385.796417 768.640869,384.833313 
	C767.693115,391.817841 766.573425,397.389496 766.232666,403.008423 
	C763.745300,444.032562 765.866943,484.969666 770.435364,525.703247 
	C776.631714,580.951843 784.308838,636.033142 795.407471,690.545959 
	C804.164490,733.557068 813.065247,776.555054 823.035522,819.294495 
	C826.715454,835.069092 826.678162,849.578918 822.489441,865.322571 
	C809.979370,912.342529 801.043640,960.062439 797.709717,1008.778564 
	C794.599182,1054.230957 795.581177,1099.359619 806.181763,1143.819092 
	C818.618408,1195.979370 847.265686,1236.208862 894.601868,1262.834351 
	C919.414429,1276.790894 945.338684,1287.738647 972.412903,1296.195801 
	C1005.861877,1306.644165 1040.071167,1313.633301 1074.812622,1317.907104 
	C1096.602051,1320.587646 1118.460938,1322.750122 1140.324097,1324.762695 
	C1150.927734,1325.738647 1161.626709,1325.630005 1172.257935,1326.365356 
	C1228.276123,1330.239624 1284.212769,1327.358276 1340.043579,1323.339722 
	C1374.538818,1320.856812 1408.892822,1316.198975 1443.244385,1311.982544 
	C1492.891479,1305.889038 1541.670288,1295.221680 1590.035767,1282.665771 
	C1629.012573,1272.547241 1667.433838,1260.599854 1706.586914,1245.829956 
z"/>
<path fill="#F9F9F9" opacity="1.000000" stroke="none" 
	d="
M2125.481445,339.981720 
	C2135.351074,339.158264 2144.284424,338.046356 2153.246582,337.704926 
	C2164.674561,337.269501 2172.716309,344.294739 2173.866699,354.969452 
	C2174.889160,364.454681 2167.908936,373.429291 2156.865967,374.863281 
	C2135.432129,377.646606 2113.897949,379.660461 2092.398926,381.932312 
	C2080.822021,383.155670 2069.234375,384.281799 2057.645752,385.389130 
	C2054.339600,385.705017 2050.999756,386.092621 2047.697266,385.947784 
	C2034.068604,385.350098 2025.550049,372.550232 2030.465210,359.798431 
	C2032.001099,355.813507 2034.476562,352.151367 2036.789551,348.511444 
	C2056.406738,317.640167 2076.090088,286.811157 2095.732422,255.955917 
	C2096.762695,254.337585 2097.599365,252.595917 2099.054443,249.951096 
	C2095.479736,249.951096 2092.993652,249.743851 2090.551758,249.984619 
	C2074.338135,251.583176 2058.137939,253.317780 2041.925537,254.926743 
	C2031.296753,255.981583 2023.816162,252.229736 2020.348511,244.285995 
	C2014.934082,231.882599 2021.837646,219.399689 2036.217896,216.966873 
	C2046.029541,215.306992 2056.069580,215.018036 2065.998047,214.023605 
	C2089.491455,211.670563 2112.995117,209.401672 2136.464355,206.825974 
	C2151.334473,205.194016 2162.796387,219.181305 2156.123047,232.551865 
	C2149.474854,245.872147 2141.042725,258.326385 2133.063721,270.952545 
	C2119.565918,292.311493 2105.796143,313.498169 2092.182373,334.783966 
	C2090.823486,336.908661 2089.751465,339.217072 2087.701416,342.998932 
	C2101.033691,341.926971 2112.795898,340.981262 2125.481445,339.981720 
z"/>
<path fill="#F7F7F6" opacity="1.000000" stroke="none" 
	d="
M1927.076172,460.994019 
	C1938.921753,442.557861 1950.343384,424.710419 1963.000366,404.932495 
	C1953.974976,405.525818 1946.942139,405.932251 1939.919189,406.469513 
	C1935.272217,406.825043 1930.647339,407.627197 1925.998657,407.767944 
	C1918.624634,407.991211 1912.962402,403.198364 1911.974487,396.349518 
	C1910.913818,388.995148 1914.305420,383.373901 1922.085938,381.494873 
	C1928.849976,379.861389 1935.857422,379.104767 1942.800903,378.373260 
	C1957.692993,376.804352 1972.599854,375.319855 1987.531250,374.215759 
	C1991.347168,373.933624 1995.723755,374.294281 1999.065063,375.939423 
	C2006.696289,379.696808 2008.057373,387.804718 2002.798584,396.617493 
	C1996.661133,406.902771 1990.085938,416.926392 1983.728638,427.081085 
	C1976.844971,438.076782 1969.978638,449.083496 1963.152222,460.114807 
	C1962.511719,461.149811 1962.212280,462.395752 1961.267090,464.766632 
	C1972.457642,463.417725 1982.568359,461.992615 1992.724854,461.073456 
	C1996.944214,460.691620 2001.454102,460.673676 2005.489868,461.760376 
	C2012.006958,463.515320 2015.940308,469.192657 2015.845825,474.913940 
	C2015.743042,481.132507 2011.210449,486.492126 2004.149048,487.979645 
	C2000.279419,488.794830 1996.220093,488.663086 1992.268311,489.141632 
	C1976.083618,491.101562 1959.910522,493.157257 1943.725830,495.116852 
	C1940.094482,495.556488 1936.430542,496.039612 1932.786499,496.004700 
	C1920.846436,495.890503 1913.848755,484.217560 1919.335205,473.476898 
	C1921.446045,469.344604 1924.194336,465.537842 1927.076172,460.994019 
z"/>
<path fill="#010101" opacity="1.000000" stroke="none" 
	d="
M1705.848877,1246.080078 
	C1667.433838,1260.599854 1629.012573,1272.547241 1590.035767,1282.665771 
	C1541.670288,1295.221680 1492.891479,1305.889038 1443.244385,1311.982544 
	C1408.892822,1316.198975 1374.538818,1320.856812 1340.043579,1323.339722 
	C1284.212769,1327.358276 1228.276123,1330.239624 1172.257935,1326.365356 
	C1161.626709,1325.630005 1150.927734,1325.738647 1140.324097,1324.762695 
	C1118.460938,1322.750122 1096.602051,1320.587646 1074.812622,1317.907104 
	C1040.071167,1313.633301 1005.861877,1306.644165 972.412903,1296.195801 
	C945.338684,1287.738647 919.414429,1276.790894 894.601868,1262.834351 
	C847.265686,1236.208862 818.618408,1195.979370 806.181763,1143.819092 
	C795.581177,1099.359619 794.599182,1054.230957 797.709717,1008.778564 
	C801.043640,960.062439 809.979370,912.342529 822.489441,865.322571 
	C826.678162,849.578918 826.715454,835.069092 823.035522,819.294495 
	C813.065247,776.555054 804.164490,733.557068 795.407471,690.545959 
	C784.308838,636.033142 776.631714,580.951843 770.435364,525.703247 
	C765.866943,484.969666 763.745300,444.032562 766.232666,403.008423 
	C766.573425,397.389496 767.693115,391.817841 768.640869,384.833313 
	C772.007202,385.796417 775.011536,386.519867 777.924866,387.511078 
	C800.726013,395.268829 821.858826,406.626038 842.800049,418.256653 
	C894.650269,447.053894 944.634766,478.888306 993.525269,512.425171 
	C1018.509277,529.563049 1043.109863,547.262268 1067.790527,564.838501 
	C1073.620728,568.990540 1078.765503,570.571899 1086.058472,567.016907 
	C1105.180298,557.695862 1124.566284,548.812500 1144.288940,540.849304 
	C1190.425659,522.221436 1238.270142,509.345703 1287.122925,500.091095 
	C1323.494629,493.200928 1360.202637,489.514587 1397.125854,487.063202 
	C1431.799805,484.761139 1466.392212,485.318481 1500.976074,487.581390 
	C1513.072632,488.372864 1520.125244,483.931976 1525.016479,472.871002 
	C1549.804321,416.816986 1578.226562,362.579376 1609.562012,309.943085 
	C1625.372070,283.385712 1642.847046,257.807281 1659.961548,232.046906 
	C1664.516724,225.190491 1670.520508,219.296356 1676.392090,212.327896 
	C1683.236084,216.933014 1687.311279,222.875610 1691.283447,228.858963 
	C1709.731079,256.647369 1725.226929,286.095093 1739.577026,316.134277 
	C1766.844482,373.213135 1791.458130,431.449951 1812.049072,491.257782 
	C1828.178101,538.105774 1842.639160,585.526428 1858.133667,632.596436 
	C1860.057007,638.439575 1862.953979,644.359192 1866.803833,649.104492 
	C1886.536621,673.427979 1905.883545,697.993835 1923.040527,724.255798 
	C1948.463379,763.170227 1969.436768,804.388550 1985.086670,848.057251 
	C1997.453491,882.564758 2006.878540,917.878601 2006.597534,955.220154 
	C2006.390381,982.783508 1999.929688,1008.618713 1988.905518,1033.510864 
	C1972.085083,1071.490723 1945.389160,1101.830566 1914.252319,1128.601685 
	C1858.036743,1176.935669 1793.437988,1210.862305 1725.137207,1238.396118 
	C1718.958984,1240.886841 1712.770630,1243.352661 1705.848877,1246.080078 
M1428.947876,1134.604980 
	C1431.913086,1130.235718 1433.269775,1134.459351 1434.676636,1135.905884 
	C1469.269043,1171.471680 1536.146240,1172.281128 1571.198730,1121.387329 
	C1578.211548,1111.205322 1583.552612,1100.027222 1584.743286,1087.417969 
	C1585.473999,1079.678345 1580.544800,1072.638306 1573.415771,1070.619141 
	C1567.372070,1068.907227 1559.444214,1073.020996 1556.262573,1079.741211 
	C1555.277222,1081.822510 1554.818604,1084.160278 1554.183838,1086.399170 
	C1546.602783,1113.139648 1523.166138,1131.093994 1495.982300,1130.971924 
	C1469.788940,1130.854248 1445.238403,1111.417114 1438.204834,1085.395020 
	C1435.965576,1077.110840 1434.348389,1069.133423 1442.179565,1062.629395 
	C1443.132935,1061.837524 1443.535034,1060.365479 1444.152344,1059.187744 
	C1453.261353,1041.808105 1462.375488,1024.431152 1471.449585,1007.033386 
	C1472.368896,1005.270691 1473.219482,1003.431885 1473.791748,1001.534851 
	C1477.829956,988.146362 1469.560791,977.282532 1455.563477,977.679260 
	C1451.914551,977.782715 1448.242432,978.210754 1444.646484,978.855652 
	C1416.829468,983.844482 1388.999268,988.771057 1361.249146,994.111633 
	C1356.161133,995.090820 1350.960571,997.156799 1346.617432,999.966309 
	C1338.993896,1004.897827 1337.549805,1014.350281 1342.498047,1021.945801 
	C1343.758423,1023.880554 1345.316284,1025.700439 1347.031006,1027.247925 
	C1364.077637,1042.632202 1380.763428,1058.463257 1398.499634,1073.011963 
	C1404.944458,1078.298706 1407.816162,1083.732178 1407.805542,1091.418823 
	C1407.800537,1095.075684 1407.777710,1098.759155 1407.361938,1102.384644 
	C1404.525391,1127.119995 1385.287720,1148.685425 1360.782104,1155.500000 
	C1337.178833,1162.063599 1311.220947,1150.134766 1298.393311,1131.910400 
	C1296.670776,1129.463135 1294.945557,1127.013672 1293.118042,1124.645020 
	C1289.186035,1119.548706 1283.893921,1118.354004 1277.931763,1119.842407 
	C1271.929932,1121.340698 1267.299683,1125.308350 1266.800293,1131.260498 
	C1266.415283,1135.848755 1267.694824,1141.428345 1270.212036,1145.271851 
	C1288.325806,1172.928223 1314.324219,1187.993896 1347.291870,1187.197266 
	C1383.842163,1186.313965 1410.833862,1168.025391 1428.947876,1134.604980 
M1092.520020,1015.156799 
	C1076.560303,1007.278625 1068.735229,993.177856 1064.531250,976.934753 
	C1061.536743,965.364624 1060.130981,953.389893 1057.818237,941.634644 
	C1055.856934,931.665222 1047.637329,924.215149 1037.958252,923.257996 
	C1028.750854,922.347534 1019.089172,927.644104 1015.483093,936.665649 
	C1013.824280,940.815491 1013.217041,945.795471 1013.588562,950.278320 
	C1015.500122,973.343750 1020.425659,995.627502 1031.746216,1016.178711 
	C1043.123901,1036.833740 1059.587402,1051.610718 1081.518311,1060.230957 
	C1098.199951,1066.787964 1115.453003,1066.583862 1132.739014,1063.724365 
	C1165.486938,1058.307007 1189.961670,1041.563354 1204.258667,1010.923340 
	C1209.120239,1000.504456 1211.642578,989.609619 1213.009399,978.303894 
	C1215.559082,957.213013 1214.083618,936.374390 1208.651855,915.907654 
	C1205.132935,902.648804 1194.592163,895.817444 1182.665039,898.100342 
	C1170.458862,900.436646 1163.061646,911.643066 1164.897583,925.141602 
	C1165.525635,929.759827 1166.529419,934.331238 1167.048340,938.959229 
	C1168.684204,953.548462 1170.294678,968.174377 1166.154663,982.633118 
	C1162.229614,996.341736 1155.026123,1007.675720 1141.404175,1013.442383 
	C1125.961792,1019.979675 1110.146606,1022.808228 1092.520020,1015.156799 
M1609.699707,894.853027 
	C1606.735962,881.576050 1603.880371,868.273743 1600.777100,855.029419 
	C1597.832031,842.459839 1586.935913,834.890869 1575.003174,836.843079 
	C1563.194702,838.774963 1556.053955,848.690979 1556.975708,861.622803 
	C1558.334229,880.680908 1562.390503,899.122009 1569.681396,916.783386 
	C1583.747559,950.856628 1608.036255,971.915894 1645.493652,976.503784 
	C1661.775146,978.497986 1677.321899,975.708374 1692.641357,970.782166 
	C1717.655029,962.738770 1736.404541,947.407104 1747.293945,923.106812 
	C1759.977295,894.803467 1759.459229,865.576721 1753.363281,835.978149 
	C1752.628296,832.409912 1751.742432,828.819641 1750.426147,825.434082 
	C1746.155518,814.449646 1735.516479,808.165894 1725.197144,810.349548 
	C1716.736938,812.139771 1705.898071,821.956604 1707.366333,834.832397 
	C1707.817261,838.787048 1708.390381,842.749878 1709.255249,846.631470 
	C1712.706421,862.119385 1713.265137,877.653381 1709.862915,893.182190 
	C1707.680664,903.143555 1703.190430,911.816284 1695.140137,918.577148 
	C1667.763062,941.569275 1628.329102,933.668640 1612.491699,901.855896 
	C1611.604004,900.072510 1610.904907,898.195190 1609.699707,894.853027 
M955.163635,549.901978 
	C928.180298,531.615540 901.301025,513.172668 874.163879,495.117371 
	C862.816650,487.567596 851.011902,480.686493 839.236694,473.806793 
	C833.599487,470.513214 827.665649,470.844666 822.390686,474.942139 
	C816.905823,479.202820 814.895813,484.970001 816.078857,491.787079 
	C817.015503,497.184387 820.837280,500.223511 825.163147,503.026672 
	C858.660400,524.732483 892.238953,546.317871 925.486572,568.401001 
	C937.786743,576.570679 949.267151,585.974731 961.339905,594.978821 
	C959.873047,596.589111 959.310974,597.420715 958.556702,598.003784 
	C920.640442,627.312561 887.515381,661.221924 860.069580,700.577332 
	C857.599976,704.118591 855.006165,707.658386 853.152466,711.526001 
	C849.373291,719.411133 851.984741,728.219116 858.924561,732.573914 
	C865.301575,736.575562 872.859802,735.305969 878.709412,729.018250 
	C880.738098,726.837646 882.434082,724.327026 884.136414,721.866394 
	C899.717651,699.344360 916.983032,678.134949 936.938232,659.436462 
	C954.156555,643.302429 972.458862,628.301880 990.608398,613.192261 
	C1005.891724,600.468872 1006.410400,590.443359 990.985596,577.689270 
	C979.709290,568.365295 967.903931,559.681213 955.163635,549.901978 
M1690.800903,524.029785 
	C1707.202148,532.081604 1723.690063,539.963806 1739.962158,548.268799 
	C1746.465820,551.588074 1752.299072,556.213989 1758.781250,559.583679 
	C1769.923218,565.375793 1781.564331,558.466919 1782.604858,545.991577 
	C1783.220947,538.606628 1779.296997,534.061401 1773.601929,530.564514 
	C1729.078857,503.226135 1682.033691,481.791809 1630.986572,469.729309 
	C1629.184692,469.303497 1627.520996,468.293365 1624.964355,467.201874 
	C1636.499268,443.327393 1647.148682,419.670380 1659.219360,396.762177 
	C1671.000488,374.403961 1684.148682,352.761261 1696.897583,330.921692 
	C1699.568115,326.346710 1701.159668,321.803894 1699.477905,316.719818 
	C1697.445557,310.575928 1693.299927,306.615936 1686.650146,305.559509 
	C1679.601807,304.439789 1674.056152,306.892059 1670.403687,312.831665 
	C1662.387817,325.866791 1654.506104,338.989105 1646.813232,352.217468 
	C1624.686279,390.266327 1606.454346,430.219879 1589.230225,470.657532 
	C1583.820679,483.357574 1587.852417,492.171234 1600.880493,496.104218 
	C1603.107178,496.776459 1605.413452,497.201019 1607.699341,497.658691 
	C1635.861816,503.297241 1662.919678,512.425171 1690.800903,524.029785 
z"/>
<path fill="#F8F8F8" opacity="1.000000" stroke="none" 
	d="
M1428.609619,1135.217773 
	C1410.833862,1168.025391 1383.842163,1186.313965 1347.291870,1187.197266 
	C1314.324219,1187.993896 1288.325806,1172.928223 1270.212036,1145.271851 
	C1267.694824,1141.428345 1266.415283,1135.848755 1266.800293,1131.260498 
	C1267.299683,1125.308350 1271.929932,1121.340698 1277.931763,1119.842407 
	C1283.893921,1118.354004 1289.186035,1119.548706 1293.118042,1124.645020 
	C1294.945557,1127.013672 1296.670776,1129.463135 1298.393311,1131.910400 
	C1311.220947,1150.134766 1337.178833,1162.063599 1360.782104,1155.500000 
	C1385.287720,1148.685425 1404.525391,1127.119995 1407.361938,1102.384644 
	C1407.777710,1098.759155 1407.800537,1095.075684 1407.805542,1091.418823 
	C1407.816162,1083.732178 1404.944458,1078.298706 1398.499634,1073.011963 
	C1380.763428,1058.463257 1364.077637,1042.632202 1347.031006,1027.247925 
	C1345.316284,1025.700439 1343.758423,1023.880554 1342.498047,1021.945801 
	C1337.549805,1014.350281 1338.993896,1004.897827 1346.617432,999.966309 
	C1350.960571,997.156799 1356.161133,995.090820 1361.249146,994.111633 
	C1388.999268,988.771057 1416.829468,983.844482 1444.646484,978.855652 
	C1448.242432,978.210754 1451.914551,977.782715 1455.563477,977.679260 
	C1469.560791,977.282532 1477.829956,988.146362 1473.791748,1001.534851 
	C1473.219482,1003.431885 1472.368896,1005.270691 1471.449585,1007.033386 
	C1462.375488,1024.431152 1453.261353,1041.808105 1444.152344,1059.187744 
	C1443.535034,1060.365479 1443.132935,1061.837524 1442.179565,1062.629395 
	C1434.348389,1069.133423 1435.965576,1077.110840 1438.204834,1085.395020 
	C1445.238403,1111.417114 1469.788940,1130.854248 1495.982300,1130.971924 
	C1523.166138,1131.093994 1546.602783,1113.139648 1554.183838,1086.399170 
	C1554.818604,1084.160278 1555.277222,1081.822510 1556.262573,1079.741211 
	C1559.444214,1073.020996 1567.372070,1068.907227 1573.415771,1070.619141 
	C1580.544800,1072.638306 1585.473999,1079.678345 1584.743286,1087.417969 
	C1583.552612,1100.027222 1578.211548,1111.205322 1571.198730,1121.387329 
	C1536.146240,1172.281128 1469.269043,1171.471680 1434.676636,1135.905884 
	C1433.269775,1134.459351 1431.913086,1130.235718 1428.609619,1135.217773 
z"/>
<path fill="#F9F9F8" opacity="1.000000" stroke="none" 
	d="
M1093.235474,1015.454224 
	C1110.146606,1022.808228 1125.961792,1019.979675 1141.404175,1013.442383 
	C1155.026123,1007.675720 1162.229614,996.341736 1166.154663,982.633118 
	C1170.294678,968.174377 1168.684204,953.548462 1167.048340,938.959229 
	C1166.529419,934.331238 1165.525635,929.759827 1164.897583,925.141602 
	C1163.061646,911.643066 1170.458862,900.436646 1182.665039,898.100342 
	C1194.592163,895.817444 1205.132935,902.648804 1208.651855,915.907654 
	C1214.083618,936.374390 1215.559082,957.213013 1213.009399,978.303894 
	C1211.642578,989.609619 1209.120239,1000.504456 1204.258667,1010.923340 
	C1189.961670,1041.563354 1165.486938,1058.307007 1132.739014,1063.724365 
	C1115.453003,1066.583862 1098.199951,1066.787964 1081.518311,1060.230957 
	C1059.587402,1051.610718 1043.123901,1036.833740 1031.746216,1016.178711 
	C1020.425659,995.627502 1015.500122,973.343750 1013.588562,950.278320 
	C1013.217041,945.795471 1013.824280,940.815491 1015.483093,936.665649 
	C1019.089172,927.644104 1028.750854,922.347534 1037.958252,923.257996 
	C1047.637329,924.215149 1055.856934,931.665222 1057.818237,941.634644 
	C1060.130981,953.389893 1061.536743,965.364624 1064.531250,976.934753 
	C1068.735229,993.177856 1076.560303,1007.278625 1093.235474,1015.454224 
z"/>
<path fill="#F8F8F8" opacity="1.000000" stroke="none" 
	d="
M1609.908936,895.607300 
	C1610.904907,898.195190 1611.604004,900.072510 1612.491699,901.855896 
	C1628.329102,933.668640 1667.763062,941.569275 1695.140137,918.577148 
	C1703.190430,911.816284 1707.680664,903.143555 1709.862915,893.182190 
	C1713.265137,877.653381 1712.706421,862.119385 1709.255249,846.631470 
	C1708.390381,842.749878 1707.817261,838.787048 1707.366333,834.832397 
	C1705.898071,821.956604 1716.736938,812.139771 1725.197144,810.349548 
	C1735.516479,808.165894 1746.155518,814.449646 1750.426147,825.434082 
	C1751.742432,828.819641 1752.628296,832.409912 1753.363281,835.978149 
	C1759.459229,865.576721 1759.977295,894.803467 1747.293945,923.106812 
	C1736.404541,947.407104 1717.655029,962.738770 1692.641357,970.782166 
	C1677.321899,975.708374 1661.775146,978.497986 1645.493652,976.503784 
	C1608.036255,971.915894 1583.747559,950.856628 1569.681396,916.783386 
	C1562.390503,899.122009 1558.334229,880.680908 1556.975708,861.622803 
	C1556.053955,848.690979 1563.194702,838.774963 1575.003174,836.843079 
	C1586.935913,834.890869 1597.832031,842.459839 1600.777100,855.029419 
	C1603.880371,868.273743 1606.735962,881.576050 1609.908936,895.607300 
z"/>
<path fill="#F8F8F7" opacity="1.000000" stroke="none" 
	d="
M955.749023,550.306885 
	C967.903931,559.681213 979.709290,568.365295 990.985596,577.689270 
	C1006.410400,590.443359 1005.891724,600.468872 990.608398,613.192261 
	C972.458862,628.301880 954.156555,643.302429 936.938232,659.436462 
	C916.983032,678.134949 899.717651,699.344360 884.136414,721.866394 
	C882.434082,724.327026 880.738098,726.837646 878.709412,729.018250 
	C872.859802,735.305969 865.301575,736.575562 858.924561,732.573914 
	C851.984741,728.219116 849.373291,719.411133 853.152466,711.526001 
	C855.006165,707.658386 857.599976,704.118591 860.069580,700.577332 
	C887.515381,661.221924 920.640442,627.312561 958.556702,598.003784 
	C959.310974,597.420715 959.873047,596.589111 961.339905,594.978821 
	C949.267151,585.974731 937.786743,576.570679 925.486572,568.401001 
	C892.238953,546.317871 858.660400,524.732483 825.163147,503.026672 
	C820.837280,500.223511 817.015503,497.184387 816.078857,491.787079 
	C814.895813,484.970001 816.905823,479.202820 822.390686,474.942139 
	C827.665649,470.844666 833.599487,470.513214 839.236694,473.806793 
	C851.011902,480.686493 862.816650,487.567596 874.163879,495.117371 
	C901.301025,513.172668 928.180298,531.615540 955.749023,550.306885 
z"/>
<path fill="#F7F7F7" opacity="1.000000" stroke="none" 
	d="
M1690.085205,523.754089 
	C1662.919678,512.425171 1635.861816,503.297241 1607.699341,497.658691 
	C1605.413452,497.201019 1603.107178,496.776459 1600.880493,496.104218 
	C1587.852417,492.171234 1583.820679,483.357574 1589.230225,470.657532 
	C1606.454346,430.219879 1624.686279,390.266327 1646.813232,352.217468 
	C1654.506104,338.989105 1662.387817,325.866791 1670.403687,312.831665 
	C1674.056152,306.892059 1679.601807,304.439789 1686.650146,305.559509 
	C1693.299927,306.615936 1697.445557,310.575928 1699.477905,316.719818 
	C1701.159668,321.803894 1699.568115,326.346710 1696.897583,330.921692 
	C1684.148682,352.761261 1671.000488,374.403961 1659.219360,396.762177 
	C1647.148682,419.670380 1636.499268,443.327393 1624.964355,467.201874 
	C1627.520996,468.293365 1629.184692,469.303497 1630.986572,469.729309 
	C1682.033691,481.791809 1729.078857,503.226135 1773.601929,530.564514 
	C1779.296997,534.061401 1783.220947,538.606628 1782.604858,545.991577 
	C1781.564331,558.466919 1769.923218,565.375793 1758.781250,559.583679 
	C1752.299072,556.213989 1746.465820,551.588074 1739.962158,548.268799 
	C1723.690063,539.963806 1707.202148,532.081604 1690.085205,523.754089 
z"/>
</svg>