<svg width="22" height="15" viewBox="0 0 22 15" fill="none" xmlns="http://www.w3.org/2000/svg">
<path d="M16.0661 9.53916C16.0264 10.0021 15.8899 10.4077 15.6754 10.7747C15.4136 11.2226 15.0812 11.5735 14.7093 11.869C14.4302 12.0908 14.1387 12.2844 13.835 12.4488C13.2436 12.769 12.6297 12.9988 11.9994 13.1624C11.5685 13.2743 11.1332 13.3482 10.6951 13.4C10.3036 13.4464 9.91123 13.4708 9.51843 13.466C9.24548 13.4626 8.97164 13.4485 8.70011 13.415C8.16073 13.3485 7.6278 13.2362 7.12427 12.9687C6.8397 12.8175 6.57515 12.6252 6.35609 12.3478C6.18542 12.1318 6.06464 11.8768 5.98376 11.5896C5.88163 11.227 5.83531 10.8542 5.82501 10.4712C5.81209 9.99108 5.84087 9.5152 5.90883 9.04346C5.94245 8.81016 5.9884 8.57951 6.03245 8.34876C6.0461 8.27721 6.04927 8.21013 6.0364 8.13772C5.96367 7.72834 5.88636 7.31994 5.8245 6.90794C5.76026 6.48009 5.70491 6.04969 5.65868 5.61822C5.62211 5.27692 5.59756 4.93286 5.58191 4.58901C5.56818 4.28736 5.56428 3.98358 5.61069 3.684C5.6371 3.51348 5.69989 3.3711 5.83028 3.2918C5.92162 3.23624 6.01911 3.24636 6.11303 3.27567C6.1881 3.29909 6.26169 3.33424 6.33256 3.37366C6.69934 3.57769 7.04549 3.8292 7.38274 4.09988C7.65405 4.31765 7.92301 4.54005 8.19187 4.76256C8.28277 4.83779 8.37017 4.91964 8.45973 4.99897C9.45539 4.40221 10.5092 4.21489 11.6052 4.25277C11.6372 4.16874 11.6709 4.07827 11.706 3.98863C11.9506 3.36315 12.2161 2.75234 12.5292 2.17543C12.614 2.01927 12.7015 1.86547 12.8114 1.73459C12.8878 1.64359 12.972 1.56942 13.0829 1.56138C13.2198 1.55146 13.3266 1.62995 13.4085 1.75498C13.4956 1.88789 13.5778 2.02745 13.6505 2.17309C13.8244 2.52088 13.9661 2.8903 14.1002 3.26409C14.3121 3.85429 14.4996 4.45655 14.6632 5.07007C14.7412 5.36269 14.807 5.66039 14.8816 5.95451C14.8944 6.00525 14.9186 6.05459 14.9458 6.09606C15.2963 6.62942 15.5895 7.20648 15.8044 7.84373C15.921 8.18947 16.0105 8.54539 16.0534 8.91757C16.0767 9.12074 16.0901 9.32514 16.0661 9.53916ZM13.3327 12.1663C13.381 12.1421 13.4294 12.118 13.4776 12.0937C14.0112 11.8248 14.5159 11.4935 14.9551 11.0215C15.1984 10.7601 15.4069 10.4638 15.5383 10.0929C15.6245 9.84979 15.6749 9.5975 15.6765 9.32832C15.6787 8.96366 15.6051 8.6188 15.5085 8.28181C15.3862 7.85536 15.2224 7.45283 15.0238 7.07281C14.8897 6.81635 14.7386 6.57645 14.5844 6.33891C14.5543 6.29257 14.5317 6.23476 14.5167 6.1777C14.3956 5.71803 14.2826 5.25494 14.1566 4.79744C13.9958 4.21338 13.8035 3.64466 13.5904 3.08725C13.4783 2.7939 13.3573 2.50632 13.2132 2.23495C13.1821 2.17652 13.1503 2.11849 13.0968 2.07351C13.0509 2.14157 13.004 2.19913 12.9684 2.26608C12.8347 2.51765 12.6982 2.76744 12.5747 3.02679C12.3299 3.54081 12.1078 4.07048 11.9142 4.61788C11.876 4.7259 11.8209 4.76927 11.7264 4.76154C11.4562 4.73944 11.1859 4.734 10.915 4.75648C10.6266 4.78042 10.3398 4.81642 10.0556 4.8837C9.67399 4.97408 9.3002 5.09982 8.93976 5.28173C8.78567 5.3595 8.63422 5.44625 8.48483 5.53727C8.42786 5.57199 8.38766 5.55655 8.34211 5.516C8.1493 5.34436 7.9571 5.17151 7.76192 5.00415C7.37996 4.67664 6.98945 4.36576 6.58438 4.08454C6.42077 3.97096 6.25567 3.86005 6.07754 3.78429C6.05478 3.77461 6.03131 3.76754 6.00501 3.75814C5.9976 3.82635 5.98885 3.88076 5.98619 3.93563C5.96676 4.33626 5.98334 4.73603 6.01903 5.13382C6.06744 5.67336 6.12741 6.21126 6.21412 6.74361C6.28253 7.16364 6.35207 7.58355 6.42996 8.00092C6.45871 8.15497 6.45842 8.29667 6.4257 8.45042C6.32796 8.9096 6.25815 9.37561 6.23211 9.85135C6.20781 10.2952 6.21548 10.7359 6.29829 11.1701C6.39546 11.6795 6.61926 12.0724 6.98908 12.3324C7.18292 12.4687 7.38546 12.5756 7.59698 12.6582C7.8583 12.7602 8.12556 12.8285 8.39697 12.8702C8.5672 12.8964 8.73798 12.9175 8.90878 12.9371C8.99162 12.9467 9.07521 12.9456 9.15826 12.9528C9.59591 12.9906 10.0329 12.9625 10.4691 12.9232C10.7386 12.899 11.007 12.8535 11.2753 12.8123C11.6632 12.7528 12.0443 12.6486 12.4222 12.526C12.7267 12.4272 13.0268 12.3105 13.3327 12.1663Z" fill="#010101"/>
<path d="M16.6053 3.32013C16.6824 3.31209 16.7522 3.30123 16.8222 3.2979C16.9115 3.29365 16.9743 3.36225 16.9833 3.4665C16.9913 3.55913 16.9368 3.64677 16.8505 3.66077C16.6831 3.68796 16.5148 3.70762 16.3469 3.72981C16.2564 3.74175 16.1659 3.75275 16.0754 3.76357C16.0495 3.76665 16.0234 3.77044 15.9976 3.76902C15.8912 3.76318 15.8246 3.63819 15.863 3.51366C15.875 3.47474 15.8943 3.43898 15.9124 3.40343C16.0657 3.10196 16.2195 2.80089 16.3729 2.49957C16.381 2.48377 16.3875 2.46676 16.3989 2.44093C16.3709 2.44093 16.3515 2.43891 16.3324 2.44126C16.2058 2.45687 16.0792 2.47381 15.9525 2.48952C15.8695 2.49982 15.8111 2.46318 15.784 2.38561C15.7417 2.26448 15.7956 2.14258 15.908 2.11882C15.9846 2.10261 16.063 2.09979 16.1406 2.09007C16.3242 2.0671 16.5078 2.04494 16.6911 2.01979C16.8073 2.00385 16.8968 2.14044 16.8447 2.27101C16.7928 2.4011 16.7269 2.52272 16.6646 2.64602C16.5591 2.8546 16.4515 3.06151 16.3452 3.26938C16.3346 3.29012 16.3262 3.31267 16.3102 3.3496C16.4143 3.33913 16.5062 3.3299 16.6053 3.32013Z" fill="#010101"/>
<path d="M15.0553 4.50189C15.1478 4.32185 15.2371 4.14756 15.3359 3.95442C15.2654 3.96021 15.2105 3.96418 15.1556 3.96943C15.1193 3.9729 15.0832 3.98073 15.0469 3.98211C14.9893 3.98429 14.945 3.93748 14.9373 3.8706C14.929 3.79878 14.9555 3.74389 15.0163 3.72554C15.0691 3.70958 15.1239 3.7022 15.1781 3.69505C15.2945 3.67973 15.4109 3.66523 15.5276 3.65445C15.5574 3.6517 15.5916 3.65522 15.6177 3.67128C15.6773 3.70798 15.6879 3.78716 15.6469 3.87322C15.5989 3.97366 15.5475 4.07155 15.4979 4.17071C15.4441 4.27809 15.3905 4.38558 15.3371 4.49331C15.3321 4.50342 15.3298 4.51558 15.3224 4.53874C15.4098 4.52556 15.4888 4.51165 15.5682 4.50267C15.6011 4.49894 15.6364 4.49877 15.6679 4.50938C15.7188 4.52652 15.7495 4.58196 15.7488 4.63783C15.748 4.69856 15.7126 4.7509 15.6574 4.76543C15.6272 4.77339 15.5955 4.7721 15.5646 4.77677C15.4382 4.79591 15.3118 4.81599 15.1854 4.83513C15.157 4.83942 15.1284 4.84414 15.0999 4.8438C15.0066 4.84268 14.9519 4.72869 14.9948 4.6238C15.0113 4.58344 15.0328 4.54627 15.0553 4.50189Z" fill="#010101"/>
<path d="M13.3269 12.1688C13.0268 12.3105 12.7267 12.4272 12.4222 12.526C12.0443 12.6486 11.6632 12.7528 11.2753 12.8123C11.007 12.8535 10.7386 12.899 10.4691 12.9232C10.0329 12.9625 9.59591 12.9906 9.15827 12.9528C9.07521 12.9456 8.99162 12.9467 8.90878 12.9371C8.73798 12.9175 8.5672 12.8964 8.39697 12.8702C8.12556 12.8284 7.8583 12.7602 7.59698 12.6582C7.38546 12.5756 7.18293 12.4687 6.98908 12.3324C6.61926 12.0724 6.39546 11.6795 6.2983 11.1701C6.21548 10.7359 6.20781 10.2952 6.23211 9.85135C6.25815 9.37561 6.32796 8.90959 6.4257 8.45042C6.45842 8.29667 6.45871 8.15497 6.42997 8.00092C6.35207 7.58355 6.28254 7.16364 6.21412 6.74361C6.12741 6.21126 6.06744 5.67336 6.01903 5.13382C5.98334 4.73603 5.96676 4.33626 5.98619 3.93563C5.98885 3.88076 5.9976 3.82635 6.00501 3.75814C6.03131 3.76754 6.05478 3.77461 6.07754 3.78429C6.25567 3.86005 6.42077 3.97096 6.58438 4.08454C6.98946 4.36576 7.37996 4.67664 7.76192 5.00415C7.9571 5.17151 8.1493 5.34436 8.34211 5.516C8.38766 5.55655 8.42786 5.57199 8.48483 5.53727C8.63422 5.44625 8.78567 5.3595 8.93976 5.28173C9.3002 5.09982 9.67399 4.97408 10.0556 4.8837C10.3398 4.81642 10.6266 4.78042 10.915 4.75648C11.1859 4.734 11.4562 4.73944 11.7264 4.76154C11.8209 4.76927 11.876 4.7259 11.9142 4.61788C12.1078 4.07048 12.3299 3.54081 12.5747 3.02679C12.6982 2.76744 12.8347 2.51765 12.9684 2.26608C13.004 2.19913 13.0509 2.14157 13.0968 2.07351C13.1503 2.11849 13.1821 2.17652 13.2132 2.23495C13.3573 2.50632 13.4783 2.7939 13.5904 3.08725C13.8035 3.64466 13.9958 4.21338 14.1566 4.79744C14.2826 5.25494 14.3956 5.71803 14.5167 6.1777C14.5317 6.23476 14.5543 6.29257 14.5844 6.33891C14.7386 6.57645 14.8897 6.81635 15.0238 7.07281C15.2224 7.45283 15.3862 7.85536 15.5085 8.28181C15.6051 8.6188 15.6787 8.96366 15.6765 9.32832C15.6749 9.59749 15.6245 9.84979 15.5383 10.0929C15.4069 10.4638 15.1984 10.7601 14.9551 11.0215C14.5159 11.4935 14.0112 11.8248 13.4776 12.0937C13.4294 12.118 13.381 12.1421 13.3269 12.1688ZM11.1637 11.0801C11.1868 11.0375 11.1974 11.0787 11.2084 11.0928C11.4787 11.4402 12.0011 11.4481 12.275 10.951C12.3298 10.8516 12.3715 10.7425 12.3808 10.6193C12.3865 10.5437 12.348 10.475 12.2923 10.4553C12.2451 10.4385 12.1832 10.4787 12.1583 10.5443C12.1506 10.5647 12.147 10.5875 12.1421 10.6094C12.0828 10.8705 11.8997 11.0458 11.6874 11.0446C11.4827 11.0435 11.2909 10.8537 11.236 10.5996C11.2185 10.5187 11.2058 10.4408 11.267 10.3772C11.2745 10.3695 11.2776 10.3551 11.2824 10.3436C11.3536 10.1739 11.4248 10.0042 11.4957 9.83431C11.5029 9.8171 11.5095 9.79914 11.514 9.78061C11.5455 9.64987 11.4809 9.54377 11.3716 9.54765C11.3431 9.54866 11.3144 9.55284 11.2863 9.55914C11.069 9.60786 10.8516 9.65597 10.6348 9.70812C10.595 9.71768 10.5544 9.73786 10.5204 9.7653C10.4609 9.81346 10.4496 9.90576 10.4883 9.97994C10.4981 9.99883 10.5103 10.0166 10.5237 10.0317C10.6569 10.182 10.7872 10.3366 10.9258 10.4786C10.9761 10.5303 10.9986 10.5833 10.9985 10.6584C10.9984 10.6941 10.9983 10.7301 10.995 10.7655C10.9729 11.007 10.8226 11.2176 10.6311 11.2842C10.4467 11.3483 10.2439 11.2318 10.1437 11.0538C10.1302 11.0299 10.1168 11.006 10.1025 10.9829C10.0718 10.9331 10.0304 10.9214 9.98384 10.936C9.93695 10.9506 9.90078 10.9893 9.89688 11.0475C9.89387 11.0923 9.90387 11.1468 9.92353 11.1843C10.065 11.4544 10.2682 11.6015 10.5257 11.5937C10.8113 11.5851 11.0221 11.4065 11.1637 11.0801ZM8.53531 9.91364C8.41063 9.83671 8.34949 9.699 8.31665 9.54038C8.29326 9.42739 8.28227 9.31045 8.2642 9.19565C8.24888 9.09829 8.18467 9.02554 8.10905 9.01619C8.03712 9.0073 7.96163 9.05902 7.93346 9.14713C7.9205 9.18765 7.91576 9.23628 7.91866 9.28006C7.93359 9.50531 7.97208 9.72292 8.06052 9.92362C8.14941 10.1253 8.27803 10.2696 8.44936 10.3538C8.57969 10.4179 8.71448 10.4159 8.84952 10.3879C9.10537 10.335 9.29658 10.1715 9.40827 9.8723C9.44625 9.77055 9.46596 9.66416 9.47664 9.55375C9.49656 9.34778 9.48503 9.14428 9.44259 8.94441C9.4151 8.81493 9.33275 8.74822 9.23957 8.77051C9.14421 8.79333 9.08642 8.90276 9.10076 9.03459C9.10567 9.07969 9.11351 9.12433 9.11757 9.16952C9.13035 9.312 9.14293 9.45483 9.11058 9.59603C9.07992 9.7299 9.02364 9.84058 8.91722 9.8969C8.79658 9.96074 8.67302 9.98836 8.53531 9.91364ZM12.5758 8.7388C12.5526 8.60914 12.5303 8.47924 12.5061 8.3499C12.4831 8.22715 12.3979 8.15323 12.3047 8.1723C12.2125 8.19116 12.1567 8.288 12.1639 8.41429C12.1745 8.6004 12.2062 8.78049 12.2631 8.95296C12.373 9.28571 12.5628 9.49137 12.8554 9.53617C12.9826 9.55564 13.1041 9.5284 13.2238 9.48029C13.4192 9.40175 13.5657 9.25202 13.6507 9.01471C13.7498 8.73831 13.7458 8.4529 13.6982 8.16385C13.6924 8.129 13.6855 8.09394 13.6752 8.06088C13.6418 7.95361 13.5587 7.89224 13.4781 7.91357C13.412 7.93105 13.3273 8.02692 13.3388 8.15266C13.3423 8.19128 13.3468 8.22998 13.3536 8.26789C13.3805 8.41913 13.3849 8.57083 13.3583 8.72248C13.3413 8.81976 13.3062 8.90446 13.2433 8.97048C13.0294 9.19501 12.7213 9.11786 12.5976 8.80719C12.5907 8.78977 12.5852 8.77144 12.5758 8.7388ZM7.46222 5.37014C7.25141 5.19156 7.04141 5.01145 6.82941 4.83513C6.74076 4.7614 6.64853 4.6942 6.55654 4.62702C6.5125 4.59486 6.46614 4.59809 6.42493 4.63811C6.38208 4.67972 6.36637 4.73604 6.37562 4.80261C6.38293 4.85532 6.41279 4.885 6.44659 4.91237C6.70828 5.12434 6.97062 5.33514 7.23036 5.55079C7.32646 5.63057 7.41615 5.72241 7.51047 5.81034C7.49901 5.82607 7.49462 5.83419 7.48872 5.83988C7.1925 6.1261 6.93371 6.45725 6.71929 6.84158C6.7 6.87616 6.67974 6.91073 6.66525 6.9485C6.63573 7.0255 6.65613 7.11151 6.71035 7.15404C6.76017 7.19312 6.81922 7.18072 6.86492 7.11932C6.88077 7.09802 6.89402 7.07351 6.90732 7.04948C7.02904 6.82953 7.16393 6.62241 7.31983 6.43981C7.45435 6.28225 7.59733 6.13576 7.73913 5.98821C7.85853 5.86395 7.86258 5.76605 7.74207 5.6415C7.65398 5.55044 7.56175 5.46564 7.46222 5.37014ZM13.2094 5.11748C13.3375 5.19611 13.4663 5.27308 13.5935 5.35419C13.6443 5.3866 13.6898 5.43178 13.7405 5.46468C13.8275 5.52125 13.9185 5.45378 13.9266 5.33195C13.9314 5.25983 13.9008 5.21544 13.8563 5.18129C13.5084 4.91432 13.1409 4.705 12.7421 4.5872C12.728 4.58304 12.715 4.57318 12.695 4.56252C12.7852 4.32937 12.8683 4.09834 12.9627 3.87463C13.0547 3.65629 13.1574 3.44493 13.257 3.23166C13.2779 3.18698 13.2903 3.14262 13.2772 3.09297C13.2613 3.03297 13.2289 2.9943 13.177 2.98398C13.1219 2.97305 13.0786 2.99699 13.05 3.055C12.9874 3.18229 12.9258 3.31044 12.8657 3.43962C12.6929 3.81119 12.5504 4.20137 12.4159 4.59627C12.3736 4.72029 12.4051 4.80636 12.5069 4.84477C12.5243 4.85133 12.5423 4.85548 12.5602 4.85995C12.7802 4.91501 12.9916 5.00415 13.2094 5.11748Z" fill="white"/>
<path d="M11.161 11.0861C11.0221 11.4065 10.8113 11.5851 10.5257 11.5937C10.2682 11.6015 10.065 11.4544 9.92353 11.1843C9.90387 11.1468 9.89387 11.0923 9.89688 11.0475C9.90078 10.9893 9.93695 10.9506 9.98384 10.936C10.0304 10.9214 10.0718 10.9331 10.1025 10.9829C10.1168 11.006 10.1302 11.0299 10.1437 11.0538C10.2439 11.2318 10.4467 11.3483 10.6311 11.2842C10.8226 11.2176 10.9729 11.007 10.995 10.7655C10.9983 10.7301 10.9984 10.6941 10.9985 10.6584C10.9986 10.5833 10.9761 10.5303 10.9258 10.4786C10.7872 10.3366 10.6569 10.182 10.5237 10.0317C10.5103 10.0166 10.4981 9.99883 10.4883 9.97994C10.4496 9.90576 10.4609 9.81345 10.5204 9.76529C10.5544 9.73786 10.595 9.71768 10.6348 9.70812C10.8516 9.65597 11.069 9.60785 11.2863 9.55914C11.3144 9.55284 11.3431 9.54866 11.3716 9.54765C11.4809 9.54377 11.5455 9.64987 11.514 9.78061C11.5095 9.79914 11.5029 9.81709 11.4957 9.83431C11.4248 10.0042 11.3536 10.1739 11.2824 10.3436C11.2776 10.3551 11.2745 10.3695 11.267 10.3772C11.2058 10.4408 11.2185 10.5187 11.236 10.5996C11.2909 10.8537 11.4827 11.0435 11.6874 11.0446C11.8997 11.0458 12.0828 10.8705 12.1421 10.6094C12.147 10.5875 12.1506 10.5647 12.1583 10.5443C12.1832 10.4787 12.2451 10.4385 12.2923 10.4553C12.348 10.475 12.3865 10.5437 12.3808 10.6193C12.3715 10.7425 12.3298 10.8516 12.275 10.951C12.0011 11.4481 11.4787 11.4402 11.2084 11.0928C11.1974 11.0787 11.1868 11.0375 11.161 11.0861Z" fill="#010101"/>
<path d="M8.5409 9.91655C8.67302 9.98836 8.79658 9.96074 8.91722 9.8969C9.02364 9.84058 9.07992 9.7299 9.11058 9.59603C9.14293 9.45483 9.13035 9.312 9.11757 9.16952C9.11351 9.12433 9.10567 9.07969 9.10076 9.03459C9.08642 8.90276 9.14421 8.79333 9.23957 8.77051C9.33275 8.74822 9.4151 8.81493 9.44259 8.94441C9.48503 9.14428 9.49656 9.34778 9.47664 9.55375C9.46596 9.66416 9.44625 9.77055 9.40827 9.8723C9.29658 10.1715 9.10537 10.335 8.84952 10.3879C8.71448 10.4159 8.57969 10.4179 8.44936 10.3538C8.27803 10.2696 8.14941 10.1253 8.06052 9.92362C7.97208 9.72293 7.93359 9.50531 7.91866 9.28006C7.91576 9.23628 7.9205 9.18765 7.93346 9.14713C7.96163 9.05903 8.03712 9.0073 8.10905 9.01619C8.18467 9.02554 8.24888 9.09829 8.2642 9.19565C8.28227 9.31045 8.29326 9.42739 8.31665 9.54038C8.34949 9.699 8.41063 9.83671 8.5409 9.91655Z" fill="#010101"/>
<path d="M12.5774 8.74617C12.5852 8.77144 12.5907 8.78977 12.5976 8.80719C12.7213 9.11786 13.0294 9.19501 13.2433 8.97048C13.3062 8.90446 13.3413 8.81976 13.3583 8.72248C13.3849 8.57083 13.3805 8.41913 13.3536 8.26789C13.3468 8.22998 13.3423 8.19128 13.3388 8.15266C13.3273 8.02692 13.412 7.93105 13.4781 7.91357C13.5587 7.89225 13.6418 7.95361 13.6752 8.06088C13.6855 8.09394 13.6924 8.129 13.6982 8.16385C13.7458 8.4529 13.7498 8.73832 13.6507 9.01471C13.5657 9.25202 13.4192 9.40175 13.2238 9.48029C13.1041 9.5284 12.9826 9.55564 12.8554 9.53617C12.5628 9.49137 12.373 9.28571 12.2631 8.95296C12.2062 8.78049 12.1745 8.6004 12.1639 8.41429C12.1567 8.288 12.2125 8.19116 12.3047 8.1723C12.3979 8.15323 12.4831 8.22715 12.5061 8.3499C12.5303 8.47924 12.5526 8.60914 12.5774 8.74617Z" fill="#010101"/>
<path d="M7.46679 5.37409C7.56175 5.46564 7.65398 5.55044 7.74208 5.6415C7.86258 5.76605 7.85853 5.86395 7.73913 5.98821C7.59733 6.13576 7.45435 6.28225 7.31983 6.43981C7.16393 6.62241 7.02904 6.82953 6.90732 7.04948C6.89402 7.07351 6.88077 7.09802 6.86492 7.11932C6.81922 7.18072 6.76017 7.19312 6.71035 7.15404C6.65613 7.11151 6.63573 7.0255 6.66525 6.9485C6.67974 6.91073 6.7 6.87616 6.71929 6.84158C6.93371 6.45725 7.1925 6.1261 7.48872 5.83988C7.49462 5.83419 7.49901 5.82607 7.51047 5.81034C7.41615 5.72241 7.32646 5.63057 7.23036 5.55079C6.97062 5.33514 6.70828 5.12434 6.44659 4.91237C6.41279 4.88499 6.38293 4.85532 6.37562 4.80261C6.36637 4.73603 6.38208 4.67971 6.42493 4.63811C6.46614 4.59809 6.5125 4.59486 6.55654 4.62702C6.64853 4.6942 6.74076 4.7614 6.82941 4.83513C7.04141 5.01145 7.25141 5.19156 7.46679 5.37409Z" fill="#010101"/>
<path d="M13.2038 5.11479C12.9916 5.00415 12.7802 4.91501 12.5602 4.85995C12.5423 4.85548 12.5243 4.85133 12.5069 4.84477C12.4051 4.80636 12.3736 4.72029 12.4159 4.59627C12.5504 4.20137 12.6929 3.81119 12.8657 3.43962C12.9258 3.31044 12.9874 3.18229 13.05 3.055C13.0786 2.99699 13.1219 2.97304 13.177 2.98398C13.2289 2.9943 13.2613 3.03297 13.2772 3.09297C13.2903 3.14262 13.2779 3.18698 13.257 3.23166C13.1574 3.44493 13.0547 3.65629 12.9627 3.87463C12.8683 4.09834 12.7852 4.32937 12.695 4.56252C12.715 4.57318 12.728 4.58304 12.7421 4.5872C13.1409 4.705 13.5084 4.91432 13.8563 5.18129C13.9008 5.21544 13.9314 5.25983 13.9266 5.33195C13.9185 5.45378 13.8275 5.52125 13.7405 5.46468C13.6898 5.43178 13.6443 5.3866 13.5935 5.35419C13.4663 5.27308 13.3375 5.19611 13.2038 5.11479Z" fill="#010101"/>
</svg>
