<svg width="22" height="22" viewBox="0 0 22 22" fill="none" xmlns="http://www.w3.org/2000/svg">
<mask id="path-1-outside-1_4_2" maskUnits="userSpaceOnUse" x="4.57751" y="1.27673" width="12" height="19" fill="black">
<rect fill="white" x="4.57751" y="1.27673" width="12" height="19"/>
<path d="M12.1154 19.2531C11.7991 19.4067 11.4811 19.4755 11.1649 19.5617C11.0289 19.5988 10.8915 19.623 10.7542 19.6402C10.4353 19.6802 10.1158 19.7053 9.79718 19.7501C9.59611 19.7784 9.3967 19.74 9.19664 19.7305C9.03819 19.723 8.87932 19.7083 8.72189 19.6761C8.50767 19.6324 8.29434 19.5727 8.08126 19.5123C7.97865 19.4833 7.87774 19.4345 7.77561 19.399C7.53179 19.3141 7.30129 19.1551 7.0728 18.9831C6.88151 18.8391 6.70946 18.6353 6.54388 18.413C6.31191 18.1017 6.14389 17.6961 6.03093 17.2117C5.90155 16.657 5.83712 16.0778 5.82582 15.4758C5.81389 14.8403 5.82461 14.2064 5.87808 13.5784C5.91047 13.1981 5.95639 12.8208 6.00556 12.4462C6.05506 12.0691 6.05906 12.0718 6.01219 11.7058C5.9653 11.3397 5.91898 10.9732 5.8759 10.6054C5.84646 10.3542 5.82347 10.1005 5.79672 9.8482C5.77447 9.63842 5.74834 9.4299 5.72869 9.21932C5.70857 9.00353 5.69401 8.78598 5.67741 8.5691C5.6579 8.31414 5.63545 8.05972 5.62047 7.80385C5.60494 7.53861 5.59254 7.27222 5.58657 7.00575C5.57919 6.67701 5.5755 6.34752 5.57864 6.01862C5.58064 5.80973 5.59394 5.6003 5.60959 5.393C5.62439 5.19702 5.68361 5.03786 5.76033 4.90416C5.8021 4.83138 5.85419 4.78687 5.91392 4.77611C6.00329 4.76002 6.08929 4.77467 6.17442 4.83297C6.45327 5.02394 6.71357 5.2827 6.96951 5.55732C7.11978 5.71856 7.26975 5.88114 7.41691 6.05167C7.64545 6.3165 7.87248 6.58582 8.09809 6.85895C8.19557 6.97697 8.29051 7.10332 8.3816 7.23734C8.43419 7.31472 8.48133 7.31525 8.53882 7.26848C8.65041 7.17767 8.7643 7.09633 8.87601 7.00598C9.13189 6.79901 9.40168 6.67653 9.673 6.56502C9.84027 6.49628 10.0089 6.43805 10.1774 6.37998C10.2463 6.35624 10.3162 6.33969 10.3861 6.32971C10.6273 6.29528 10.8684 6.2574 11.1099 6.23638C11.2552 6.22373 11.4012 6.23998 11.5468 6.24313C11.5649 6.24352 11.583 6.24318 11.6056 6.24318C11.6546 6.05585 11.7018 5.86602 11.7534 5.68037C11.8467 5.3451 11.9421 5.01183 12.0376 4.67872C12.0799 4.53126 12.121 4.38201 12.169 4.24087C12.3007 3.8539 12.4373 3.47259 12.5688 3.08542C12.6383 2.88086 12.7222 2.69995 12.8188 2.53934C12.8647 2.46319 12.9139 2.3882 12.9683 2.3365C13.053 2.25604 13.1446 2.26025 13.2326 2.32856C13.3105 2.38905 13.3748 2.48543 13.4292 2.6041C13.5129 2.78691 13.5882 2.97995 13.6511 3.18976C13.7325 3.46107 13.823 3.72368 13.8987 4.00008C13.9906 4.33564 14.0749 4.67865 14.1555 5.02394C14.2547 5.44863 14.3487 5.87745 14.4411 6.30727C14.5926 7.01213 14.7181 7.73352 14.8407 8.45657C14.8453 8.48387 14.8508 8.51158 14.8522 8.53971C14.8633 8.76637 14.9345 8.93028 15.0111 9.0978C15.1059 9.30519 15.1908 9.52857 15.275 9.7514C15.3637 9.98621 15.4526 10.2221 15.5301 10.4694C15.605 10.7084 15.6717 10.9578 15.7308 11.2115C15.8093 11.5483 15.8864 11.8881 15.947 12.2366C16.0562 12.864 16.119 13.5072 16.0595 14.1677C16.0264 14.5353 15.9608 14.8872 15.87 15.2223C15.7885 15.5229 15.6851 15.7981 15.5715 16.0588C15.5004 16.2218 15.4166 16.367 15.3347 16.5132C15.1479 16.8469 14.9442 17.144 14.723 17.3961C14.4381 17.7209 14.1434 18.016 13.8355 18.2603C13.4585 18.5594 13.072 18.8117 12.6738 19.0011C12.5079 19.08 12.3419 19.1579 12.1757 19.2354C12.1582 19.2436 12.1399 19.2462 12.1154 19.2531ZM12.1469 5.87092C12.0682 6.17653 11.9862 6.47951 11.9122 6.78889C11.8774 6.93447 11.826 6.9844 11.7421 6.97748C11.3727 6.94701 11.0035 6.93925 10.6349 7.01233C10.4177 7.0554 10.2006 7.09922 9.98781 7.19284C9.76821 7.28944 9.54702 7.37673 9.33043 7.49262C9.16128 7.58311 8.99645 7.70361 8.83282 7.82491C8.70783 7.91758 8.58719 8.0304 8.46575 8.13854C8.42867 8.17157 8.39784 8.17101 8.36441 8.12692C8.21679 7.9322 8.06911 7.73761 7.92031 7.54594C7.78648 7.37354 7.6542 7.19618 7.51589 7.0366C7.21451 6.68888 6.91133 6.3462 6.60573 6.01112C6.42935 5.81774 6.24076 5.66686 6.04909 5.53055C6.0361 5.52131 6.02063 5.52377 6.00265 5.52003C5.97527 5.80224 5.97471 6.07977 5.97756 6.35447C5.98384 6.96021 6.01273 7.56345 6.06222 8.16321C6.09374 8.5452 6.11388 8.93064 6.15047 9.31086C6.19147 9.73698 6.24401 10.1595 6.29386 10.5826C6.3432 11.0015 6.39592 11.4191 6.44616 11.8377C6.46539 11.9979 6.46425 12.1538 6.43998 12.3172C6.39569 12.6154 6.36165 12.9191 6.32807 13.2222C6.30019 13.4739 6.27675 13.7275 6.25578 13.9816C6.24064 14.1649 6.2228 14.3505 6.22374 14.5348C6.22575 14.9249 6.21165 15.315 6.23842 15.7058C6.26022 16.024 6.28419 16.3387 6.34189 16.6421C6.37866 16.8353 6.41423 17.0291 6.47616 17.2033C6.61242 17.5865 6.78572 17.8959 7.00748 18.1085C7.09248 18.19 7.17962 18.2648 7.26777 18.3342C7.37259 18.4167 7.47914 18.492 7.58567 18.567C7.72743 18.6667 7.87841 18.6949 8.0252 18.7559C8.29257 18.8671 8.56263 18.9351 8.83567 18.9597C9.10838 18.9843 9.38145 18.9978 9.65445 19.0082C9.79486 19.0135 9.93562 19.0075 10.076 18.9956C10.2471 18.9811 10.4183 18.9603 10.589 18.9327C10.7935 18.8996 10.9978 18.8616 11.2016 18.816C11.3228 18.7889 11.4423 18.7369 11.5634 18.7069C12.0028 18.598 12.4275 18.3752 12.8512 18.1466C13.0129 18.0594 13.1708 17.9487 13.3293 17.843C13.4416 17.7681 13.5552 17.6957 13.6626 17.6008C13.8639 17.423 14.0612 17.2302 14.2598 17.0428C14.4546 16.8591 14.6369 16.6378 14.8081 16.3897C14.9692 16.1562 15.1226 15.9056 15.2553 15.6137C15.405 15.2844 15.5247 14.9295 15.5978 14.5182C15.6712 14.1059 15.6991 13.6888 15.6619 13.2628C15.6167 12.7443 15.5413 12.2412 15.4248 11.7577C15.3176 11.3126 15.2011 10.8762 15.0562 10.4704C14.9298 10.1162 14.7842 9.7848 14.6451 9.44588C14.5813 9.29015 14.506 9.14748 14.4985 8.93741C14.4977 8.91447 14.4905 8.89239 14.4866 8.86972C14.4112 8.43431 14.3386 7.99723 14.2598 7.56395C14.1974 7.22121 14.1311 6.88053 14.06 6.54355C13.9232 5.89489 13.7736 5.25613 13.6131 4.62552C13.4932 4.15383 13.3581 3.69862 13.2038 3.26241C13.1761 3.18426 13.1453 3.10799 13.0977 3.05838C12.9967 3.2203 12.9274 3.41729 12.8574 3.61153C12.5974 4.33185 12.3642 5.08066 12.1469 5.87092Z"/>
</mask>
<path d="M12.1154 19.2531C11.7991 19.4067 11.4811 19.4755 11.1649 19.5617C11.0289 19.5988 10.8915 19.623 10.7542 19.6402C10.4353 19.6802 10.1158 19.7053 9.79718 19.7501C9.59611 19.7784 9.3967 19.74 9.19664 19.7305C9.03819 19.723 8.87932 19.7083 8.72189 19.6761C8.50767 19.6324 8.29434 19.5727 8.08126 19.5123C7.97865 19.4833 7.87774 19.4345 7.77561 19.399C7.53179 19.3141 7.30129 19.1551 7.0728 18.9831C6.88151 18.8391 6.70946 18.6353 6.54388 18.413C6.31191 18.1017 6.14389 17.6961 6.03093 17.2117C5.90155 16.657 5.83712 16.0778 5.82582 15.4758C5.81389 14.8403 5.82461 14.2064 5.87808 13.5784C5.91047 13.1981 5.95639 12.8208 6.00556 12.4462C6.05506 12.0691 6.05906 12.0718 6.01219 11.7058C5.9653 11.3397 5.91898 10.9732 5.8759 10.6054C5.84646 10.3542 5.82347 10.1005 5.79672 9.8482C5.77447 9.63842 5.74834 9.4299 5.72869 9.21932C5.70857 9.00353 5.69401 8.78598 5.67741 8.5691C5.6579 8.31414 5.63545 8.05972 5.62047 7.80385C5.60494 7.53861 5.59254 7.27222 5.58657 7.00575C5.57919 6.67701 5.5755 6.34752 5.57864 6.01862C5.58064 5.80973 5.59394 5.6003 5.60959 5.393C5.62439 5.19702 5.68361 5.03786 5.76033 4.90416C5.8021 4.83138 5.85419 4.78687 5.91392 4.77611C6.00329 4.76002 6.08929 4.77467 6.17442 4.83297C6.45327 5.02394 6.71357 5.2827 6.96951 5.55732C7.11978 5.71856 7.26975 5.88114 7.41691 6.05167C7.64545 6.3165 7.87248 6.58582 8.09809 6.85895C8.19557 6.97697 8.29051 7.10332 8.3816 7.23734C8.43419 7.31472 8.48133 7.31525 8.53882 7.26848C8.65041 7.17767 8.7643 7.09633 8.87601 7.00598C9.13189 6.79901 9.40168 6.67653 9.673 6.56502C9.84027 6.49628 10.0089 6.43805 10.1774 6.37998C10.2463 6.35624 10.3162 6.33969 10.3861 6.32971C10.6273 6.29528 10.8684 6.2574 11.1099 6.23638C11.2552 6.22373 11.4012 6.23998 11.5468 6.24313C11.5649 6.24352 11.583 6.24318 11.6056 6.24318C11.6546 6.05585 11.7018 5.86602 11.7534 5.68037C11.8467 5.3451 11.9421 5.01183 12.0376 4.67872C12.0799 4.53126 12.121 4.38201 12.169 4.24087C12.3007 3.8539 12.4373 3.47259 12.5688 3.08542C12.6383 2.88086 12.7222 2.69995 12.8188 2.53934C12.8647 2.46319 12.9139 2.3882 12.9683 2.3365C13.053 2.25604 13.1446 2.26025 13.2326 2.32856C13.3105 2.38905 13.3748 2.48543 13.4292 2.6041C13.5129 2.78691 13.5882 2.97995 13.6511 3.18976C13.7325 3.46107 13.823 3.72368 13.8987 4.00008C13.9906 4.33564 14.0749 4.67865 14.1555 5.02394C14.2547 5.44863 14.3487 5.87745 14.4411 6.30727C14.5926 7.01213 14.7181 7.73352 14.8407 8.45657C14.8453 8.48387 14.8508 8.51158 14.8522 8.53971C14.8633 8.76637 14.9345 8.93028 15.0111 9.0978C15.1059 9.30519 15.1908 9.52857 15.275 9.7514C15.3637 9.98621 15.4526 10.2221 15.5301 10.4694C15.605 10.7084 15.6717 10.9578 15.7308 11.2115C15.8093 11.5483 15.8864 11.8881 15.947 12.2366C16.0562 12.864 16.119 13.5072 16.0595 14.1677C16.0264 14.5353 15.9608 14.8872 15.87 15.2223C15.7885 15.5229 15.6851 15.7981 15.5715 16.0588C15.5004 16.2218 15.4166 16.367 15.3347 16.5132C15.1479 16.8469 14.9442 17.144 14.723 17.3961C14.4381 17.7209 14.1434 18.016 13.8355 18.2603C13.4585 18.5594 13.072 18.8117 12.6738 19.0011C12.5079 19.08 12.3419 19.1579 12.1757 19.2354C12.1582 19.2436 12.1399 19.2462 12.1154 19.2531ZM12.1469 5.87092C12.0682 6.17653 11.9862 6.47951 11.9122 6.78889C11.8774 6.93447 11.826 6.9844 11.7421 6.97748C11.3727 6.94701 11.0035 6.93925 10.6349 7.01233C10.4177 7.0554 10.2006 7.09922 9.98781 7.19284C9.76821 7.28944 9.54702 7.37673 9.33043 7.49262C9.16128 7.58311 8.99645 7.70361 8.83282 7.82491C8.70783 7.91758 8.58719 8.0304 8.46575 8.13854C8.42867 8.17157 8.39784 8.17101 8.36441 8.12692C8.21679 7.9322 8.06911 7.73761 7.92031 7.54594C7.78648 7.37354 7.6542 7.19618 7.51589 7.0366C7.21451 6.68888 6.91133 6.3462 6.60573 6.01112C6.42935 5.81774 6.24076 5.66686 6.04909 5.53055C6.0361 5.52131 6.02063 5.52377 6.00265 5.52003C5.97527 5.80224 5.97471 6.07977 5.97756 6.35447C5.98384 6.96021 6.01273 7.56345 6.06222 8.16321C6.09374 8.5452 6.11388 8.93064 6.15047 9.31086C6.19147 9.73698 6.24401 10.1595 6.29386 10.5826C6.3432 11.0015 6.39592 11.4191 6.44616 11.8377C6.46539 11.9979 6.46425 12.1538 6.43998 12.3172C6.39569 12.6154 6.36165 12.9191 6.32807 13.2222C6.30019 13.4739 6.27675 13.7275 6.25578 13.9816C6.24064 14.1649 6.2228 14.3505 6.22374 14.5348C6.22575 14.9249 6.21165 15.315 6.23842 15.7058C6.26022 16.024 6.28419 16.3387 6.34189 16.6421C6.37866 16.8353 6.41423 17.0291 6.47616 17.2033C6.61242 17.5865 6.78572 17.8959 7.00748 18.1085C7.09248 18.19 7.17962 18.2648 7.26777 18.3342C7.37259 18.4167 7.47914 18.492 7.58567 18.567C7.72743 18.6667 7.87841 18.6949 8.0252 18.7559C8.29257 18.8671 8.56263 18.9351 8.83567 18.9597C9.10838 18.9843 9.38145 18.9978 9.65445 19.0082C9.79486 19.0135 9.93562 19.0075 10.076 18.9956C10.2471 18.9811 10.4183 18.9603 10.589 18.9327C10.7935 18.8996 10.9978 18.8616 11.2016 18.816C11.3228 18.7889 11.4423 18.7369 11.5634 18.7069C12.0028 18.598 12.4275 18.3752 12.8512 18.1466C13.0129 18.0594 13.1708 17.9487 13.3293 17.843C13.4416 17.7681 13.5552 17.6957 13.6626 17.6008C13.8639 17.423 14.0612 17.2302 14.2598 17.0428C14.4546 16.8591 14.6369 16.6378 14.8081 16.3897C14.9692 16.1562 15.1226 15.9056 15.2553 15.6137C15.405 15.2844 15.5247 14.9295 15.5978 14.5182C15.6712 14.1059 15.6991 13.6888 15.6619 13.2628C15.6167 12.7443 15.5413 12.2412 15.4248 11.7577C15.3176 11.3126 15.2011 10.8762 15.0562 10.4704C14.9298 10.1162 14.7842 9.7848 14.6451 9.44588C14.5813 9.29015 14.506 9.14748 14.4985 8.93741C14.4977 8.91447 14.4905 8.89239 14.4866 8.86972C14.4112 8.43431 14.3386 7.99723 14.2598 7.56395C14.1974 7.22121 14.1311 6.88053 14.06 6.54355C13.9232 5.89489 13.7736 5.25613 13.6131 4.62552C13.4932 4.15383 13.3581 3.69862 13.2038 3.26241C13.1761 3.18426 13.1453 3.10799 13.0977 3.05838C12.9967 3.2203 12.9274 3.41729 12.8574 3.61153C12.5974 4.33185 12.3642 5.08066 12.1469 5.87092Z" fill="black"/>
<path d="M12.1154 19.2531C11.7991 19.4067 11.4811 19.4755 11.1649 19.5617C11.0289 19.5988 10.8915 19.623 10.7542 19.6402C10.4353 19.6802 10.1158 19.7053 9.79718 19.7501C9.59611 19.7784 9.3967 19.74 9.19664 19.7305C9.03819 19.723 8.87932 19.7083 8.72189 19.6761C8.50767 19.6324 8.29434 19.5727 8.08126 19.5123C7.97865 19.4833 7.87774 19.4345 7.77561 19.399C7.53179 19.3141 7.30129 19.1551 7.0728 18.9831C6.88151 18.8391 6.70946 18.6353 6.54388 18.413C6.31191 18.1017 6.14389 17.6961 6.03093 17.2117C5.90155 16.657 5.83712 16.0778 5.82582 15.4758C5.81389 14.8403 5.82461 14.2064 5.87808 13.5784C5.91047 13.1981 5.95639 12.8208 6.00556 12.4462C6.05506 12.0691 6.05906 12.0718 6.01219 11.7058C5.9653 11.3397 5.91898 10.9732 5.8759 10.6054C5.84646 10.3542 5.82347 10.1005 5.79672 9.8482C5.77447 9.63842 5.74834 9.4299 5.72869 9.21932C5.70857 9.00353 5.69401 8.78598 5.67741 8.5691C5.6579 8.31414 5.63545 8.05972 5.62047 7.80385C5.60494 7.53861 5.59254 7.27222 5.58657 7.00575C5.57919 6.67701 5.5755 6.34752 5.57864 6.01862C5.58064 5.80973 5.59394 5.6003 5.60959 5.393C5.62439 5.19702 5.68361 5.03786 5.76033 4.90416C5.8021 4.83138 5.85419 4.78687 5.91392 4.77611C6.00329 4.76002 6.08929 4.77467 6.17442 4.83297C6.45327 5.02394 6.71357 5.2827 6.96951 5.55732C7.11978 5.71856 7.26975 5.88114 7.41691 6.05167C7.64545 6.3165 7.87248 6.58582 8.09809 6.85895C8.19557 6.97697 8.29051 7.10332 8.3816 7.23734C8.43419 7.31472 8.48133 7.31525 8.53882 7.26848C8.65041 7.17767 8.7643 7.09633 8.87601 7.00598C9.13189 6.79901 9.40168 6.67653 9.673 6.56502C9.84027 6.49628 10.0089 6.43805 10.1774 6.37998C10.2463 6.35624 10.3162 6.33969 10.3861 6.32971C10.6273 6.29528 10.8684 6.2574 11.1099 6.23638C11.2552 6.22373 11.4012 6.23998 11.5468 6.24313C11.5649 6.24352 11.583 6.24318 11.6056 6.24318C11.6546 6.05585 11.7018 5.86602 11.7534 5.68037C11.8467 5.3451 11.9421 5.01183 12.0376 4.67872C12.0799 4.53126 12.121 4.38201 12.169 4.24087C12.3007 3.8539 12.4373 3.47259 12.5688 3.08542C12.6383 2.88086 12.7222 2.69995 12.8188 2.53934C12.8647 2.46319 12.9139 2.3882 12.9683 2.3365C13.053 2.25604 13.1446 2.26025 13.2326 2.32856C13.3105 2.38905 13.3748 2.48543 13.4292 2.6041C13.5129 2.78691 13.5882 2.97995 13.6511 3.18976C13.7325 3.46107 13.823 3.72368 13.8987 4.00008C13.9906 4.33564 14.0749 4.67865 14.1555 5.02394C14.2547 5.44863 14.3487 5.87745 14.4411 6.30727C14.5926 7.01213 14.7181 7.73352 14.8407 8.45657C14.8453 8.48387 14.8508 8.51158 14.8522 8.53971C14.8633 8.76637 14.9345 8.93028 15.0111 9.0978C15.1059 9.30519 15.1908 9.52857 15.275 9.7514C15.3637 9.98621 15.4526 10.2221 15.5301 10.4694C15.605 10.7084 15.6717 10.9578 15.7308 11.2115C15.8093 11.5483 15.8864 11.8881 15.947 12.2366C16.0562 12.864 16.119 13.5072 16.0595 14.1677C16.0264 14.5353 15.9608 14.8872 15.87 15.2223C15.7885 15.5229 15.6851 15.7981 15.5715 16.0588C15.5004 16.2218 15.4166 16.367 15.3347 16.5132C15.1479 16.8469 14.9442 17.144 14.723 17.3961C14.4381 17.7209 14.1434 18.016 13.8355 18.2603C13.4585 18.5594 13.072 18.8117 12.6738 19.0011C12.5079 19.08 12.3419 19.1579 12.1757 19.2354C12.1582 19.2436 12.1399 19.2462 12.1154 19.2531ZM12.1469 5.87092C12.0682 6.17653 11.9862 6.47951 11.9122 6.78889C11.8774 6.93447 11.826 6.9844 11.7421 6.97748C11.3727 6.94701 11.0035 6.93925 10.6349 7.01233C10.4177 7.0554 10.2006 7.09922 9.98781 7.19284C9.76821 7.28944 9.54702 7.37673 9.33043 7.49262C9.16128 7.58311 8.99645 7.70361 8.83282 7.82491C8.70783 7.91758 8.58719 8.0304 8.46575 8.13854C8.42867 8.17157 8.39784 8.17101 8.36441 8.12692C8.21679 7.9322 8.06911 7.73761 7.92031 7.54594C7.78648 7.37354 7.6542 7.19618 7.51589 7.0366C7.21451 6.68888 6.91133 6.3462 6.60573 6.01112C6.42935 5.81774 6.24076 5.66686 6.04909 5.53055C6.0361 5.52131 6.02063 5.52377 6.00265 5.52003C5.97527 5.80224 5.97471 6.07977 5.97756 6.35447C5.98384 6.96021 6.01273 7.56345 6.06222 8.16321C6.09374 8.5452 6.11388 8.93064 6.15047 9.31086C6.19147 9.73698 6.24401 10.1595 6.29386 10.5826C6.3432 11.0015 6.39592 11.4191 6.44616 11.8377C6.46539 11.9979 6.46425 12.1538 6.43998 12.3172C6.39569 12.6154 6.36165 12.9191 6.32807 13.2222C6.30019 13.4739 6.27675 13.7275 6.25578 13.9816C6.24064 14.1649 6.2228 14.3505 6.22374 14.5348C6.22575 14.9249 6.21165 15.315 6.23842 15.7058C6.26022 16.024 6.28419 16.3387 6.34189 16.6421C6.37866 16.8353 6.41423 17.0291 6.47616 17.2033C6.61242 17.5865 6.78572 17.8959 7.00748 18.1085C7.09248 18.19 7.17962 18.2648 7.26777 18.3342C7.37259 18.4167 7.47914 18.492 7.58567 18.567C7.72743 18.6667 7.87841 18.6949 8.0252 18.7559C8.29257 18.8671 8.56263 18.9351 8.83567 18.9597C9.10838 18.9843 9.38145 18.9978 9.65445 19.0082C9.79486 19.0135 9.93562 19.0075 10.076 18.9956C10.2471 18.9811 10.4183 18.9603 10.589 18.9327C10.7935 18.8996 10.9978 18.8616 11.2016 18.816C11.3228 18.7889 11.4423 18.7369 11.5634 18.7069C12.0028 18.598 12.4275 18.3752 12.8512 18.1466C13.0129 18.0594 13.1708 17.9487 13.3293 17.843C13.4416 17.7681 13.5552 17.6957 13.6626 17.6008C13.8639 17.423 14.0612 17.2302 14.2598 17.0428C14.4546 16.8591 14.6369 16.6378 14.8081 16.3897C14.9692 16.1562 15.1226 15.9056 15.2553 15.6137C15.405 15.2844 15.5247 14.9295 15.5978 14.5182C15.6712 14.1059 15.6991 13.6888 15.6619 13.2628C15.6167 12.7443 15.5413 12.2412 15.4248 11.7577C15.3176 11.3126 15.2011 10.8762 15.0562 10.4704C14.9298 10.1162 14.7842 9.7848 14.6451 9.44588C14.5813 9.29015 14.506 9.14748 14.4985 8.93741C14.4977 8.91447 14.4905 8.89239 14.4866 8.86972C14.4112 8.43431 14.3386 7.99723 14.2598 7.56395C14.1974 7.22121 14.1311 6.88053 14.06 6.54355C13.9232 5.89489 13.7736 5.25613 13.6131 4.62552C13.4932 4.15383 13.3581 3.69862 13.2038 3.26241C13.1761 3.18426 13.1453 3.10799 13.0977 3.05838C12.9967 3.2203 12.9274 3.41729 12.8574 3.61153C12.5974 4.33185 12.3642 5.08066 12.1469 5.87092Z" stroke="black" stroke-width="0.6" mask="url(#path-1-outside-1_4_2)"/>
<path d="M10.5301 16.5819C10.7524 16.5339 10.9003 16.3292 10.9756 15.9509C11.0085 15.7855 10.9912 15.6221 10.9834 15.4783C10.8285 15.2231 10.681 14.9821 10.5352 14.7378C10.5129 14.7005 10.4914 14.6526 10.4813 14.6017C10.4508 14.4481 10.4867 14.3186 10.5777 14.2699C10.6673 14.2218 10.7592 14.1858 10.8512 14.1558C11.0072 14.1049 11.1643 14.0648 11.3206 14.0163C11.3771 13.9988 11.4283 14.0064 11.4769 14.0674C11.5132 14.1129 11.5338 14.1721 11.522 14.2489C11.5059 14.3535 11.4867 14.4578 11.4617 14.5562C11.4192 14.7243 11.3731 14.8897 11.3245 15.0524C11.2998 15.1354 11.2649 15.208 11.2379 15.2891C11.2269 15.3222 11.216 15.3683 11.2198 15.4032C11.2497 15.6794 11.3188 15.9075 11.4498 16.0737C11.5814 16.2406 11.8214 16.229 11.9365 16.0668C11.9965 15.9821 12.0597 15.9036 12.0938 15.7748C12.1105 15.7117 12.1234 15.6434 12.1311 15.5748C12.1399 15.4963 12.1566 15.4307 12.1905 15.38C12.2256 15.3274 12.2631 15.3091 12.3059 15.3484C12.3482 15.3871 12.3803 15.4389 12.3762 15.5345C12.3731 15.6053 12.3689 15.6763 12.3621 15.7462C12.3531 15.8396 12.3375 15.9313 12.3312 16.0252C12.2849 16.7061 12.1069 17.2449 11.8084 17.6509C11.5353 18.0224 11.2271 18.1175 10.8984 18.0056C10.6151 17.9091 10.3971 17.6088 10.2063 17.2294C10.1008 17.0198 10.0354 16.7642 9.95717 16.5231C9.93598 16.4578 9.91353 16.3923 9.89874 16.3218C9.87622 16.2145 9.9109 16.0938 9.97303 16.0435C10.0286 15.9984 10.072 16.0287 10.1098 16.1355C10.207 16.4105 10.3482 16.5498 10.5301 16.5819ZM11.1492 17.6078C11.524 17.5925 11.8645 17.2127 12.0093 16.5086C11.7005 16.7067 11.4153 16.6807 11.1736 16.1995C11.116 16.4792 11.0069 16.6698 10.8786 16.8194C10.7482 16.9714 10.5983 17.0172 10.4357 17.0085C10.4482 17.0414 10.4516 17.0534 10.4565 17.0629C10.64 17.4235 10.8677 17.5987 11.1492 17.6078ZM10.4266 17.0011C10.4296 17.0018 10.4326 17.0025 10.4356 17.0032C10.4342 17.0004 10.4329 16.9977 10.4266 17.0011Z" fill="black"/>
<path d="M7.8324 8.51024C7.82549 8.63757 7.79086 8.71855 7.74037 8.78946C7.54005 9.07082 7.34895 9.36909 7.18015 9.71756C7.08488 9.91421 7.00069 10.1244 6.91132 10.3282C6.89178 10.3727 6.87406 10.4209 6.85175 10.4602C6.80952 10.5346 6.74377 10.5456 6.70084 10.4919C6.65498 10.4345 6.63578 10.3286 6.65535 10.2268C6.66302 10.1869 6.67349 10.1468 6.68724 10.1131C6.80225 9.83054 6.91206 9.53981 7.0517 9.29444C7.19938 9.03493 7.34857 8.77832 7.50094 8.51376C7.49712 8.50621 7.49031 8.48726 7.48092 8.47494C7.18506 8.0868 6.89313 7.68812 6.58075 7.34424C6.53178 7.29033 6.48102 7.2418 6.43233 7.18706C6.36755 7.11424 6.35326 6.97187 6.39689 6.8523C6.43134 6.75787 6.51724 6.72745 6.57122 6.7901C6.65896 6.89194 6.7459 6.99618 6.83477 7.09458C7.1357 7.42779 7.41859 7.80836 7.69678 8.20076C7.75282 8.27981 7.81981 8.35092 7.8324 8.51024Z" fill="black"/>
<path d="M13.9146 7.89187C13.8571 8.05673 13.8078 8.081 13.7251 7.99559C13.6145 7.88136 13.5036 7.76803 13.3927 7.65487C13.2396 7.49872 13.0736 7.40087 12.9081 7.30313C12.7873 7.23178 12.6631 7.17986 12.5408 7.11679C12.5111 7.10149 12.4809 7.08289 12.4545 7.05452C12.3947 6.99019 12.3788 6.88817 12.4073 6.77316C12.5059 6.37447 12.5965 5.96809 12.7061 5.57982C12.8134 5.19982 12.9385 4.83636 13.0596 4.46999C13.0978 4.35445 13.1689 4.34942 13.2361 4.43772C13.2882 4.50621 13.2964 4.62089 13.2635 4.726C13.1437 5.10951 13.0233 5.49257 12.9084 5.88103C12.8429 6.1026 12.7874 6.33419 12.7277 6.56155C12.7166 6.60401 12.7069 6.64781 12.6933 6.70482C12.72 6.71894 12.7411 6.73361 12.7629 6.74113C12.9921 6.82017 13.203 6.99653 13.4144 7.16534C13.545 7.26962 13.6682 7.40517 13.7944 7.52752C13.8151 7.54751 13.8343 7.57236 13.8544 7.59414C13.9159 7.66069 13.9422 7.75278 13.9146 7.89187Z" fill="black"/>
<path d="M13.2042 12.5463C13.2539 12.9819 13.0165 13.5454 12.681 13.3932C12.4636 13.2946 12.2972 12.8227 12.3986 12.3626C12.4667 12.0536 12.5987 11.8813 12.7777 11.8765C12.9551 11.8717 13.0924 12.0248 13.1682 12.3313C13.1841 12.3957 13.1921 12.4666 13.2042 12.5463Z" fill="black"/>
<path d="M8.34265 13.8448C8.31398 13.4044 8.48388 13.0748 8.68305 13.0052C8.90589 12.9273 9.11099 13.1823 9.16652 13.5874C9.20689 13.8817 9.14136 14.2128 9.00918 14.3822C8.85381 14.5813 8.68069 14.5834 8.52958 14.3918C8.42612 14.2606 8.35771 14.0906 8.34265 13.8448Z" fill="black"/>
<path d="M11.1422 17.6075C10.8677 17.5987 10.6399 17.4235 10.4565 17.0629C10.4516 17.0534 10.4482 17.0414 10.4357 17.0085C10.5983 17.0172 10.7482 16.9714 10.8786 16.8194C11.0069 16.6698 11.1159 16.4792 11.1735 16.1995C11.4153 16.6807 11.7005 16.7067 12.0093 16.5086C11.8645 17.2127 11.524 17.5925 11.1422 17.6075Z" fill="black"/>
<path d="M10.4291 16.998C10.4329 16.9977 10.4342 17.0005 10.4356 17.0032C10.4326 17.0025 10.4296 17.0018 10.4291 16.998Z" fill="black"/>
</svg>
