<svg width="22" height="15" viewBox="0 0 22 15" fill="none" xmlns="http://www.w3.org/2000/svg">
<mask id="path-1-outside-1_4_2" maskUnits="userSpaceOnUse" x="4.57751" y="0.552307" width="12" height="14" fill="black">
<rect fill="white" x="4.57751" y="0.552307" width="12" height="14"/>
<path d="M12.1154 13.1271C11.7991 13.2319 11.4811 13.2788 11.1649 13.3375C11.0289 13.3628 10.8915 13.3793 10.7542 13.391C10.4353 13.4183 10.1158 13.4354 9.79718 13.466C9.59611 13.4853 9.3967 13.4591 9.19664 13.4526C9.03819 13.4475 8.87932 13.4375 8.72189 13.4155C8.50767 13.3857 8.29434 13.345 8.08126 13.3039C7.97865 13.284 7.87774 13.2508 7.77561 13.2266C7.53179 13.1687 7.30129 13.0603 7.0728 12.943C6.88151 12.8448 6.70946 12.7059 6.54388 12.5543C6.31191 12.3421 6.14389 12.0655 6.03093 11.7353C5.90155 11.357 5.83712 10.9621 5.82582 10.5517C5.81389 10.1184 5.82461 9.68619 5.87808 9.25801C5.91047 8.99866 5.95639 8.74142 6.00556 8.48604C6.05506 8.22895 6.05906 8.23078 6.01219 7.98124C5.9653 7.73157 5.91898 7.48169 5.8759 7.23097C5.84646 7.05969 5.82347 6.88669 5.79672 6.71467C5.77447 6.57164 5.74834 6.42946 5.72869 6.28589C5.70857 6.13876 5.69401 5.99043 5.67741 5.84256C5.6579 5.66872 5.63545 5.49526 5.62047 5.3208C5.60494 5.13995 5.59254 4.95832 5.58657 4.77664C5.57919 4.5525 5.5755 4.32784 5.57864 4.1036C5.58064 3.96117 5.59394 3.81838 5.60959 3.67703C5.62439 3.54341 5.68361 3.43489 5.76033 3.34374C5.8021 3.29411 5.85419 3.26376 5.91392 3.25643C6.00329 3.24546 6.08929 3.25544 6.17442 3.2952C6.45327 3.4254 6.71357 3.60183 6.96951 3.78907C7.11978 3.89901 7.26975 4.00986 7.41691 4.12613C7.64545 4.30669 7.87248 4.49032 8.09809 4.67655C8.19557 4.75701 8.29051 4.84316 8.3816 4.93454C8.43419 4.9873 8.48133 4.98766 8.53882 4.95577C8.65041 4.89386 8.7643 4.8384 8.87601 4.77679C9.13189 4.63568 9.40168 4.55217 9.673 4.47614C9.84027 4.42927 10.0089 4.38957 10.1774 4.34997C10.2463 4.33379 10.3162 4.3225 10.3861 4.3157C10.6273 4.29223 10.8684 4.2664 11.1099 4.25206C11.2552 4.24344 11.4012 4.25452 11.5468 4.25667C11.5649 4.25693 11.583 4.2567 11.6056 4.2567C11.6546 4.12898 11.7018 3.99955 11.7534 3.87297C11.8467 3.64437 11.9421 3.41715 12.0376 3.19003C12.0799 3.08948 12.121 2.98773 12.169 2.89149C12.3007 2.62765 12.4373 2.36766 12.5688 2.10369C12.6383 1.96421 12.7222 1.84087 12.8188 1.73136C12.8647 1.67944 12.9139 1.62831 12.9683 1.59306C13.053 1.5382 13.1446 1.54107 13.2326 1.58764C13.3105 1.62889 13.3748 1.6946 13.4292 1.77551C13.5129 1.90016 13.5882 2.03177 13.6511 2.17482C13.7325 2.35981 13.823 2.53886 13.8987 2.72731C13.9906 2.95611 14.0749 3.18998 14.1555 3.4254C14.2547 3.71496 14.3487 4.00734 14.4411 4.3004C14.5926 4.78098 14.7181 5.27284 14.8407 5.76584C14.8453 5.78444 14.8508 5.80334 14.8522 5.82252C14.8633 5.97706 14.9345 6.08881 15.0111 6.20303C15.1059 6.34444 15.1908 6.49674 15.275 6.64867C15.3637 6.80877 15.4526 6.96958 15.5301 7.13821C15.605 7.3012 15.6717 7.47124 15.7308 7.64418C15.8093 7.87385 15.8864 8.10554 15.947 8.34316C16.0562 8.77092 16.119 9.20943 16.0595 9.65982C16.0264 9.91042 15.9608 10.1504 15.87 10.3788C15.7885 10.5838 15.6851 10.7715 15.5715 10.9491C15.5004 11.0603 15.4166 11.1593 15.3347 11.259C15.1479 11.4865 14.9442 11.6891 14.723 11.861C14.4381 12.0824 14.1434 12.2836 13.8355 12.4502C13.4585 12.6541 13.072 12.8262 12.6738 12.9553C12.5079 13.0091 12.3419 13.0622 12.1757 13.1151C12.1582 13.1206 12.1399 13.1224 12.1154 13.1271ZM12.1469 4.00289C12.0682 4.21126 11.9862 4.41784 11.9122 4.62878C11.8774 4.72804 11.826 4.76208 11.7421 4.75736C11.3727 4.73659 11.0035 4.73129 10.6349 4.78113C10.4177 4.81049 10.2006 4.84036 9.98781 4.9042C9.76821 4.97006 9.54702 5.02958 9.33043 5.10859C9.16128 5.17029 8.99645 5.25245 8.83282 5.33516C8.70783 5.39834 8.58719 5.47526 8.46575 5.549C8.42867 5.57151 8.39784 5.57113 8.36441 5.54107C8.21679 5.40831 8.06911 5.27563 7.92031 5.14494C7.78648 5.0274 7.6542 4.90648 7.51589 4.79767C7.21451 4.56059 6.91133 4.32694 6.60573 4.09848C6.42935 3.96663 6.24076 3.86376 6.04909 3.77082C6.0361 3.76452 6.02063 3.7662 6.00265 3.76365C5.97527 3.95606 5.97471 4.14529 5.97756 4.33258C5.98384 4.74559 6.01273 5.15689 6.06222 5.56582C6.09374 5.82626 6.11388 6.08906 6.15047 6.3483C6.19147 6.63884 6.24401 6.92689 6.29386 7.2154C6.3432 7.50104 6.39592 7.78577 6.44616 8.07116C6.46539 8.18035 6.46425 8.28667 6.43998 8.39809C6.39569 8.60141 6.36165 8.80844 6.32807 9.01512C6.30019 9.18676 6.27675 9.35968 6.25578 9.53287C6.24064 9.6579 6.2228 9.78443 6.22374 9.91008C6.22575 10.1761 6.21165 10.442 6.23842 10.7085C6.26022 10.9254 6.28419 11.14 6.34189 11.3468C6.37866 11.4786 6.41423 11.6108 6.47616 11.7295C6.61242 11.9908 6.78572 12.2017 7.00748 12.3467C7.09248 12.4023 7.17962 12.4533 7.26777 12.5006C7.37259 12.5569 7.47914 12.6082 7.58567 12.6593C7.72743 12.7273 7.87841 12.7465 8.0252 12.7881C8.29257 12.8639 8.56263 12.9103 8.83567 12.9271C9.10838 12.9438 9.38145 12.9531 9.65445 12.9601C9.79486 12.9638 9.93562 12.9596 10.076 12.9515C10.2471 12.9416 10.4183 12.9274 10.589 12.9086C10.7935 12.8861 10.9978 12.8601 11.2016 12.8291C11.3228 12.8106 11.4423 12.7751 11.5634 12.7547C12.0028 12.6805 12.4275 12.5285 12.8512 12.3727C13.0129 12.3132 13.1708 12.2377 13.3293 12.1657C13.4416 12.1146 13.5552 12.0652 13.6626 12.0005C13.8639 11.8793 14.0612 11.7479 14.2598 11.6201C14.4546 11.4948 14.6369 11.344 14.8081 11.1748C14.9692 11.0156 15.1226 10.8447 15.2553 10.6457C15.405 10.4212 15.5247 10.1792 15.5978 9.89878C15.6712 9.61767 15.6991 9.33323 15.6619 9.04283C15.6167 8.68931 15.5413 8.34627 15.4248 8.0166C15.3176 7.71312 15.2011 7.41559 15.0562 7.13891C14.9298 6.89738 14.7842 6.67144 14.6451 6.44036C14.5813 6.33418 14.506 6.2369 14.4985 6.09368C14.4977 6.07804 14.4905 6.06298 14.4866 6.04753C14.4112 5.75065 14.3386 5.45264 14.2598 5.15723C14.1974 4.92354 14.1311 4.69126 14.06 4.4615C13.9232 4.01923 13.7736 3.58371 13.6131 3.15375C13.4932 2.83215 13.3581 2.52177 13.2038 2.22436C13.1761 2.17108 13.1453 2.11907 13.0977 2.08525C12.9967 2.19565 12.9274 2.32996 12.8574 2.4624C12.5974 2.95352 12.3642 3.46408 12.1469 4.00289Z"/>
</mask>
<path d="M12.1154 13.1271C11.7991 13.2319 11.4811 13.2788 11.1649 13.3375C11.0289 13.3628 10.8915 13.3793 10.7542 13.391C10.4353 13.4183 10.1158 13.4354 9.79718 13.466C9.59611 13.4853 9.3967 13.4591 9.19664 13.4526C9.03819 13.4475 8.87932 13.4375 8.72189 13.4155C8.50767 13.3857 8.29434 13.345 8.08126 13.3039C7.97865 13.284 7.87774 13.2508 7.77561 13.2266C7.53179 13.1687 7.30129 13.0603 7.0728 12.943C6.88151 12.8448 6.70946 12.7059 6.54388 12.5543C6.31191 12.3421 6.14389 12.0655 6.03093 11.7353C5.90155 11.357 5.83712 10.9621 5.82582 10.5517C5.81389 10.1184 5.82461 9.68619 5.87808 9.25801C5.91047 8.99866 5.95639 8.74142 6.00556 8.48604C6.05506 8.22895 6.05906 8.23078 6.01219 7.98124C5.9653 7.73157 5.91898 7.48169 5.8759 7.23097C5.84646 7.05969 5.82347 6.88669 5.79672 6.71467C5.77447 6.57164 5.74834 6.42946 5.72869 6.28589C5.70857 6.13876 5.69401 5.99043 5.67741 5.84256C5.6579 5.66872 5.63545 5.49526 5.62047 5.3208C5.60494 5.13995 5.59254 4.95832 5.58657 4.77664C5.57919 4.5525 5.5755 4.32784 5.57864 4.1036C5.58064 3.96117 5.59394 3.81838 5.60959 3.67703C5.62439 3.54341 5.68361 3.43489 5.76033 3.34374C5.8021 3.29411 5.85419 3.26376 5.91392 3.25643C6.00329 3.24546 6.08929 3.25544 6.17442 3.2952C6.45327 3.4254 6.71357 3.60183 6.96951 3.78907C7.11978 3.89901 7.26975 4.00986 7.41691 4.12613C7.64545 4.30669 7.87248 4.49032 8.09809 4.67655C8.19557 4.75701 8.29051 4.84316 8.3816 4.93454C8.43419 4.9873 8.48133 4.98766 8.53882 4.95577C8.65041 4.89386 8.7643 4.8384 8.87601 4.77679C9.13189 4.63568 9.40168 4.55217 9.673 4.47614C9.84027 4.42927 10.0089 4.38957 10.1774 4.34997C10.2463 4.33379 10.3162 4.3225 10.3861 4.3157C10.6273 4.29223 10.8684 4.2664 11.1099 4.25206C11.2552 4.24344 11.4012 4.25452 11.5468 4.25667C11.5649 4.25693 11.583 4.2567 11.6056 4.2567C11.6546 4.12898 11.7018 3.99955 11.7534 3.87297C11.8467 3.64437 11.9421 3.41715 12.0376 3.19003C12.0799 3.08948 12.121 2.98773 12.169 2.89149C12.3007 2.62765 12.4373 2.36766 12.5688 2.10369C12.6383 1.96421 12.7222 1.84087 12.8188 1.73136C12.8647 1.67944 12.9139 1.62831 12.9683 1.59306C13.053 1.5382 13.1446 1.54107 13.2326 1.58764C13.3105 1.62889 13.3748 1.6946 13.4292 1.77551C13.5129 1.90016 13.5882 2.03177 13.6511 2.17482C13.7325 2.35981 13.823 2.53886 13.8987 2.72731C13.9906 2.95611 14.0749 3.18998 14.1555 3.4254C14.2547 3.71496 14.3487 4.00734 14.4411 4.3004C14.5926 4.78098 14.7181 5.27284 14.8407 5.76584C14.8453 5.78444 14.8508 5.80334 14.8522 5.82252C14.8633 5.97706 14.9345 6.08881 15.0111 6.20303C15.1059 6.34444 15.1908 6.49674 15.275 6.64867C15.3637 6.80877 15.4526 6.96958 15.5301 7.13821C15.605 7.3012 15.6717 7.47124 15.7308 7.64418C15.8093 7.87385 15.8864 8.10554 15.947 8.34316C16.0562 8.77092 16.119 9.20943 16.0595 9.65982C16.0264 9.91042 15.9608 10.1504 15.87 10.3788C15.7885 10.5838 15.6851 10.7715 15.5715 10.9491C15.5004 11.0603 15.4166 11.1593 15.3347 11.259C15.1479 11.4865 14.9442 11.6891 14.723 11.861C14.4381 12.0824 14.1434 12.2836 13.8355 12.4502C13.4585 12.6541 13.072 12.8262 12.6738 12.9553C12.5079 13.0091 12.3419 13.0622 12.1757 13.1151C12.1582 13.1206 12.1399 13.1224 12.1154 13.1271ZM12.1469 4.00289C12.0682 4.21126 11.9862 4.41784 11.9122 4.62878C11.8774 4.72804 11.826 4.76208 11.7421 4.75736C11.3727 4.73659 11.0035 4.73129 10.6349 4.78113C10.4177 4.81049 10.2006 4.84036 9.98781 4.9042C9.76821 4.97006 9.54702 5.02958 9.33043 5.10859C9.16128 5.17029 8.99645 5.25245 8.83282 5.33516C8.70783 5.39834 8.58719 5.47526 8.46575 5.549C8.42867 5.57151 8.39784 5.57113 8.36441 5.54107C8.21679 5.40831 8.06911 5.27563 7.92031 5.14494C7.78648 5.0274 7.6542 4.90648 7.51589 4.79767C7.21451 4.56059 6.91133 4.32694 6.60573 4.09848C6.42935 3.96663 6.24076 3.86376 6.04909 3.77082C6.0361 3.76452 6.02063 3.7662 6.00265 3.76365C5.97527 3.95606 5.97471 4.14529 5.97756 4.33258C5.98384 4.74559 6.01273 5.15689 6.06222 5.56582C6.09374 5.82626 6.11388 6.08906 6.15047 6.3483C6.19147 6.63884 6.24401 6.92689 6.29386 7.2154C6.3432 7.50104 6.39592 7.78577 6.44616 8.07116C6.46539 8.18035 6.46425 8.28667 6.43998 8.39809C6.39569 8.60141 6.36165 8.80844 6.32807 9.01512C6.30019 9.18676 6.27675 9.35968 6.25578 9.53287C6.24064 9.6579 6.2228 9.78443 6.22374 9.91008C6.22575 10.1761 6.21165 10.442 6.23842 10.7085C6.26022 10.9254 6.28419 11.14 6.34189 11.3468C6.37866 11.4786 6.41423 11.6108 6.47616 11.7295C6.61242 11.9908 6.78572 12.2017 7.00748 12.3467C7.09248 12.4023 7.17962 12.4533 7.26777 12.5006C7.37259 12.5569 7.47914 12.6082 7.58567 12.6593C7.72743 12.7273 7.87841 12.7465 8.0252 12.7881C8.29257 12.8639 8.56263 12.9103 8.83567 12.9271C9.10838 12.9438 9.38145 12.9531 9.65445 12.9601C9.79486 12.9638 9.93562 12.9596 10.076 12.9515C10.2471 12.9416 10.4183 12.9274 10.589 12.9086C10.7935 12.8861 10.9978 12.8601 11.2016 12.8291C11.3228 12.8106 11.4423 12.7751 11.5634 12.7547C12.0028 12.6805 12.4275 12.5285 12.8512 12.3727C13.0129 12.3132 13.1708 12.2377 13.3293 12.1657C13.4416 12.1146 13.5552 12.0652 13.6626 12.0005C13.8639 11.8793 14.0612 11.7479 14.2598 11.6201C14.4546 11.4948 14.6369 11.344 14.8081 11.1748C14.9692 11.0156 15.1226 10.8447 15.2553 10.6457C15.405 10.4212 15.5247 10.1792 15.5978 9.89878C15.6712 9.61767 15.6991 9.33323 15.6619 9.04283C15.6167 8.68931 15.5413 8.34627 15.4248 8.0166C15.3176 7.71312 15.2011 7.41559 15.0562 7.13891C14.9298 6.89738 14.7842 6.67144 14.6451 6.44036C14.5813 6.33418 14.506 6.2369 14.4985 6.09368C14.4977 6.07804 14.4905 6.06298 14.4866 6.04753C14.4112 5.75065 14.3386 5.45264 14.2598 5.15723C14.1974 4.92354 14.1311 4.69126 14.06 4.4615C13.9232 4.01923 13.7736 3.58371 13.6131 3.15375C13.4932 2.83215 13.3581 2.52177 13.2038 2.22436C13.1761 2.17108 13.1453 2.11907 13.0977 2.08525C12.9967 2.19565 12.9274 2.32996 12.8574 2.4624C12.5974 2.95352 12.3642 3.46408 12.1469 4.00289Z" fill="black"/>
<path d="M12.1154 13.1271C11.7991 13.2319 11.4811 13.2788 11.1649 13.3375C11.0289 13.3628 10.8915 13.3793 10.7542 13.391C10.4353 13.4183 10.1158 13.4354 9.79718 13.466C9.59611 13.4853 9.3967 13.4591 9.19664 13.4526C9.03819 13.4475 8.87932 13.4375 8.72189 13.4155C8.50767 13.3857 8.29434 13.345 8.08126 13.3039C7.97865 13.284 7.87774 13.2508 7.77561 13.2266C7.53179 13.1687 7.30129 13.0603 7.0728 12.943C6.88151 12.8448 6.70946 12.7059 6.54388 12.5543C6.31191 12.3421 6.14389 12.0655 6.03093 11.7353C5.90155 11.357 5.83712 10.9621 5.82582 10.5517C5.81389 10.1184 5.82461 9.68619 5.87808 9.25801C5.91047 8.99866 5.95639 8.74142 6.00556 8.48604C6.05506 8.22895 6.05906 8.23078 6.01219 7.98124C5.9653 7.73157 5.91898 7.48169 5.8759 7.23097C5.84646 7.05969 5.82347 6.88669 5.79672 6.71467C5.77447 6.57164 5.74834 6.42946 5.72869 6.28589C5.70857 6.13876 5.69401 5.99043 5.67741 5.84256C5.6579 5.66872 5.63545 5.49526 5.62047 5.3208C5.60494 5.13995 5.59254 4.95832 5.58657 4.77664C5.57919 4.5525 5.5755 4.32784 5.57864 4.1036C5.58064 3.96117 5.59394 3.81838 5.60959 3.67703C5.62439 3.54341 5.68361 3.43489 5.76033 3.34374C5.8021 3.29411 5.85419 3.26376 5.91392 3.25643C6.00329 3.24546 6.08929 3.25544 6.17442 3.2952C6.45327 3.4254 6.71357 3.60183 6.96951 3.78907C7.11978 3.89901 7.26975 4.00986 7.41691 4.12613C7.64545 4.30669 7.87248 4.49032 8.09809 4.67655C8.19557 4.75701 8.29051 4.84316 8.3816 4.93454C8.43419 4.9873 8.48133 4.98766 8.53882 4.95577C8.65041 4.89386 8.7643 4.8384 8.87601 4.77679C9.13189 4.63568 9.40168 4.55217 9.673 4.47614C9.84027 4.42927 10.0089 4.38957 10.1774 4.34997C10.2463 4.33379 10.3162 4.3225 10.3861 4.3157C10.6273 4.29223 10.8684 4.2664 11.1099 4.25206C11.2552 4.24344 11.4012 4.25452 11.5468 4.25667C11.5649 4.25693 11.583 4.2567 11.6056 4.2567C11.6546 4.12898 11.7018 3.99955 11.7534 3.87297C11.8467 3.64437 11.9421 3.41715 12.0376 3.19003C12.0799 3.08948 12.121 2.98773 12.169 2.89149C12.3007 2.62765 12.4373 2.36766 12.5688 2.10369C12.6383 1.96421 12.7222 1.84087 12.8188 1.73136C12.8647 1.67944 12.9139 1.62831 12.9683 1.59306C13.053 1.5382 13.1446 1.54107 13.2326 1.58764C13.3105 1.62889 13.3748 1.6946 13.4292 1.77551C13.5129 1.90016 13.5882 2.03177 13.6511 2.17482C13.7325 2.35981 13.823 2.53886 13.8987 2.72731C13.9906 2.95611 14.0749 3.18998 14.1555 3.4254C14.2547 3.71496 14.3487 4.00734 14.4411 4.3004C14.5926 4.78098 14.7181 5.27284 14.8407 5.76584C14.8453 5.78444 14.8508 5.80334 14.8522 5.82252C14.8633 5.97706 14.9345 6.08881 15.0111 6.20303C15.1059 6.34444 15.1908 6.49674 15.275 6.64867C15.3637 6.80877 15.4526 6.96958 15.5301 7.13821C15.605 7.3012 15.6717 7.47124 15.7308 7.64418C15.8093 7.87385 15.8864 8.10554 15.947 8.34316C16.0562 8.77092 16.119 9.20943 16.0595 9.65982C16.0264 9.91042 15.9608 10.1504 15.87 10.3788C15.7885 10.5838 15.6851 10.7715 15.5715 10.9491C15.5004 11.0603 15.4166 11.1593 15.3347 11.259C15.1479 11.4865 14.9442 11.6891 14.723 11.861C14.4381 12.0824 14.1434 12.2836 13.8355 12.4502C13.4585 12.6541 13.072 12.8262 12.6738 12.9553C12.5079 13.0091 12.3419 13.0622 12.1757 13.1151C12.1582 13.1206 12.1399 13.1224 12.1154 13.1271ZM12.1469 4.00289C12.0682 4.21126 11.9862 4.41784 11.9122 4.62878C11.8774 4.72804 11.826 4.76208 11.7421 4.75736C11.3727 4.73659 11.0035 4.73129 10.6349 4.78113C10.4177 4.81049 10.2006 4.84036 9.98781 4.9042C9.76821 4.97006 9.54702 5.02958 9.33043 5.10859C9.16128 5.17029 8.99645 5.25245 8.83282 5.33516C8.70783 5.39834 8.58719 5.47526 8.46575 5.549C8.42867 5.57151 8.39784 5.57113 8.36441 5.54107C8.21679 5.40831 8.06911 5.27563 7.92031 5.14494C7.78648 5.0274 7.6542 4.90648 7.51589 4.79767C7.21451 4.56059 6.91133 4.32694 6.60573 4.09848C6.42935 3.96663 6.24076 3.86376 6.04909 3.77082C6.0361 3.76452 6.02063 3.7662 6.00265 3.76365C5.97527 3.95606 5.97471 4.14529 5.97756 4.33258C5.98384 4.74559 6.01273 5.15689 6.06222 5.56582C6.09374 5.82626 6.11388 6.08906 6.15047 6.3483C6.19147 6.63884 6.24401 6.92689 6.29386 7.2154C6.3432 7.50104 6.39592 7.78577 6.44616 8.07116C6.46539 8.18035 6.46425 8.28667 6.43998 8.39809C6.39569 8.60141 6.36165 8.80844 6.32807 9.01512C6.30019 9.18676 6.27675 9.35968 6.25578 9.53287C6.24064 9.6579 6.2228 9.78443 6.22374 9.91008C6.22575 10.1761 6.21165 10.442 6.23842 10.7085C6.26022 10.9254 6.28419 11.14 6.34189 11.3468C6.37866 11.4786 6.41423 11.6108 6.47616 11.7295C6.61242 11.9908 6.78572 12.2017 7.00748 12.3467C7.09248 12.4023 7.17962 12.4533 7.26777 12.5006C7.37259 12.5569 7.47914 12.6082 7.58567 12.6593C7.72743 12.7273 7.87841 12.7465 8.0252 12.7881C8.29257 12.8639 8.56263 12.9103 8.83567 12.9271C9.10838 12.9438 9.38145 12.9531 9.65445 12.9601C9.79486 12.9638 9.93562 12.9596 10.076 12.9515C10.2471 12.9416 10.4183 12.9274 10.589 12.9086C10.7935 12.8861 10.9978 12.8601 11.2016 12.8291C11.3228 12.8106 11.4423 12.7751 11.5634 12.7547C12.0028 12.6805 12.4275 12.5285 12.8512 12.3727C13.0129 12.3132 13.1708 12.2377 13.3293 12.1657C13.4416 12.1146 13.5552 12.0652 13.6626 12.0005C13.8639 11.8793 14.0612 11.7479 14.2598 11.6201C14.4546 11.4948 14.6369 11.344 14.8081 11.1748C14.9692 11.0156 15.1226 10.8447 15.2553 10.6457C15.405 10.4212 15.5247 10.1792 15.5978 9.89878C15.6712 9.61767 15.6991 9.33323 15.6619 9.04283C15.6167 8.68931 15.5413 8.34627 15.4248 8.0166C15.3176 7.71312 15.2011 7.41559 15.0562 7.13891C14.9298 6.89738 14.7842 6.67144 14.6451 6.44036C14.5813 6.33418 14.506 6.2369 14.4985 6.09368C14.4977 6.07804 14.4905 6.06298 14.4866 6.04753C14.4112 5.75065 14.3386 5.45264 14.2598 5.15723C14.1974 4.92354 14.1311 4.69126 14.06 4.4615C13.9232 4.01923 13.7736 3.58371 13.6131 3.15375C13.4932 2.83215 13.3581 2.52177 13.2038 2.22436C13.1761 2.17108 13.1453 2.11907 13.0977 2.08525C12.9967 2.19565 12.9274 2.32996 12.8574 2.4624C12.5974 2.95352 12.3642 3.46408 12.1469 4.00289Z" stroke="black" stroke-width="0.6" mask="url(#path-1-outside-1_4_2)"/>
<path d="M10.5301 11.3059C10.7524 11.2731 10.9003 11.1336 10.9756 10.8756C11.0085 10.7629 10.9912 10.6514 10.9834 10.5534C10.8285 10.3794 10.681 10.2151 10.5352 10.0485C10.5129 10.0231 10.4914 9.9904 10.4813 9.95569C10.4508 9.85101 10.4867 9.76272 10.5777 9.72947C10.6673 9.69672 10.7592 9.67212 10.8512 9.65168C11.0072 9.617 11.1643 9.58964 11.3206 9.55657C11.3771 9.54462 11.4283 9.5498 11.4769 9.59142C11.5132 9.62243 11.5338 9.6628 11.522 9.71515C11.5059 9.78648 11.4867 9.85761 11.4617 9.92472C11.4192 10.0393 11.3731 10.1521 11.3245 10.263C11.2998 10.3196 11.2649 10.3691 11.2379 10.4244C11.2269 10.447 11.216 10.4784 11.2198 10.5022C11.2497 10.6905 11.3188 10.846 11.4498 10.9593C11.5814 11.0731 11.8214 11.0652 11.9365 10.9546C11.9965 10.8969 12.0597 10.8434 12.0938 10.7555C12.1105 10.7125 12.1234 10.6659 12.1311 10.6192C12.1399 10.5657 12.1566 10.5209 12.1905 10.4864C12.2256 10.4505 12.2631 10.438 12.3059 10.4648C12.3482 10.4912 12.3803 10.5265 12.3762 10.5917C12.3731 10.64 12.3689 10.6884 12.3621 10.736C12.3531 10.7998 12.3375 10.8623 12.3312 10.9263C12.2849 11.3905 12.1069 11.7579 11.8084 12.0347C11.5353 12.288 11.2271 12.3528 10.8984 12.2765C10.6151 12.2108 10.3971 12.006 10.2063 11.7473C10.1008 11.6044 10.0354 11.4302 9.95717 11.2658C9.93598 11.2212 9.91353 11.1766 9.89874 11.1285C9.87622 11.0554 9.9109 10.9731 9.97303 10.9387C10.0286 10.908 10.072 10.9287 10.1098 11.0015C10.207 11.189 10.3482 11.2839 10.5301 11.3059ZM11.1492 12.0053C11.524 11.9949 11.8645 11.7359 12.0093 11.2559C11.7005 11.391 11.4153 11.3732 11.1736 11.0451C11.116 11.2358 11.0069 11.3658 10.8786 11.4678C10.7482 11.5714 10.5983 11.6027 10.4357 11.5967C10.4482 11.6192 10.4516 11.6273 10.4565 11.6338C10.64 11.8796 10.8677 11.9991 11.1492 12.0053ZM10.4266 11.5917C10.4296 11.5921 10.4326 11.5926 10.4356 11.5931C10.4342 11.5912 10.4329 11.5893 10.4266 11.5917Z" fill="black"/>
<path d="M7.8324 5.80245C7.82549 5.88927 7.79086 5.94448 7.74037 5.99283C7.54005 6.18466 7.34895 6.38803 7.18015 6.62562C7.08488 6.7597 7.00069 6.90299 6.91132 7.04193C6.89178 7.07231 6.87406 7.10514 6.85175 7.13196C6.80952 7.18271 6.74377 7.1902 6.70084 7.15356C6.65498 7.11442 6.63578 7.04226 6.65535 6.97281C6.66302 6.94559 6.67349 6.9183 6.68724 6.89528C6.80225 6.70266 6.91206 6.50443 7.0517 6.33713C7.19938 6.16019 7.34857 5.98523 7.50094 5.80485C7.49712 5.7997 7.49031 5.78678 7.48092 5.77838C7.18506 5.51374 6.89313 5.24191 6.58075 5.00745C6.53178 4.97069 6.48102 4.9376 6.43233 4.90028C6.36755 4.85064 6.35326 4.75356 6.39689 4.67204C6.43134 4.60765 6.51724 4.58691 6.57122 4.62963C6.65896 4.69906 6.7459 4.77013 6.83477 4.83723C7.1357 5.06442 7.41859 5.32389 7.69678 5.59144C7.75282 5.64534 7.81981 5.69382 7.8324 5.80245Z" fill="black"/>
<path d="M13.9146 5.38079C13.8571 5.49319 13.8078 5.50974 13.7251 5.45151C13.6145 5.37362 13.5036 5.29635 13.3927 5.2192C13.2396 5.11274 13.0736 5.04602 12.9081 4.97938C12.7873 4.93073 12.6631 4.89533 12.5408 4.85233C12.5111 4.84189 12.4809 4.82921 12.4545 4.80987C12.3947 4.76601 12.3788 4.69645 12.4073 4.61803C12.5059 4.3462 12.5965 4.06912 12.7061 3.80439C12.8134 3.5453 12.9385 3.29749 13.0596 3.04769C13.0978 2.96891 13.1689 2.96548 13.2361 3.02569C13.2882 3.07238 13.2964 3.15058 13.2635 3.22224C13.1437 3.48373 13.0233 3.7449 12.9084 4.00977C12.8429 4.16083 12.7874 4.31874 12.7277 4.47375C12.7166 4.50271 12.7069 4.53256 12.6933 4.57144C12.72 4.58107 12.7411 4.59106 12.7629 4.5962C12.9921 4.65009 13.203 4.77033 13.4144 4.88543C13.545 4.95653 13.6682 5.04895 13.7944 5.13237C13.8151 5.146 13.8343 5.16294 13.8544 5.17779C13.9159 5.22317 13.9422 5.28596 13.9146 5.38079Z" fill="black"/>
<path d="M13.2042 8.55434C13.2539 8.85134 13.0165 9.23553 12.681 9.13178C12.4636 9.06457 12.2972 8.74282 12.3986 8.42909C12.4667 8.21843 12.5987 8.10097 12.7777 8.09767C12.9551 8.0944 13.0924 8.19875 13.1682 8.40778C13.1841 8.45164 13.1921 8.49999 13.2042 8.55434Z" fill="black"/>
<path d="M8.34265 9.43966C8.31398 9.13938 8.48388 8.91465 8.68305 8.86719C8.90589 8.8141 9.11099 8.98798 9.16652 9.26413C9.20689 9.46485 9.14136 9.69055 9.00918 9.80606C8.85381 9.94184 8.68069 9.94327 8.52958 9.81263C8.42612 9.72317 8.35771 9.60725 8.34265 9.43966Z" fill="black"/>
<path d="M11.1422 12.0052C10.8677 11.9991 10.6399 11.8796 10.4565 11.6338C10.4516 11.6273 10.4482 11.6192 10.4357 11.5968C10.5983 11.6027 10.7482 11.5714 10.8786 11.4678C11.0069 11.3658 11.1159 11.2358 11.1735 11.0451C11.4153 11.3732 11.7005 11.391 12.0093 11.2559C11.8645 11.7359 11.524 11.9949 11.1422 12.0052Z" fill="black"/>
<path d="M10.4291 11.5896C10.4329 11.5893 10.4342 11.5912 10.4356 11.5931C10.4326 11.5926 10.4296 11.5921 10.4291 11.5896Z" fill="black"/>
</svg>
